<svg width="21" height="21" viewBox="0 0 21 21" fill="none" xmlns="http://www.w3.org/2000/svg">
<path fill-rule="evenodd" clip-rule="evenodd" d="M10.4084 20.8168C16.1568 20.8168 20.8168 16.1568 20.8168 10.4084C20.8168 4.66 16.1568 0 10.4084 0C4.66 0 0 4.66 0 10.4084C0 16.1568 4.66 20.8168 10.4084 20.8168ZM15.2315 8.72629C15.7396 8.2182 15.7396 7.39442 15.2315 6.88633C14.7235 6.37823 13.8997 6.37823 13.3916 6.88633L9.10736 11.1705L7.42524 9.48843C6.91715 8.98034 6.09337 8.98034 5.58527 9.48843C5.07718 9.99652 5.07718 10.8203 5.58527 11.3284L8.18738 13.9305C8.69547 14.4386 9.51925 14.4386 10.0273 13.9305L15.2315 8.72629Z" fill="#3C0B6D"/>
</svg>
