<svg width="14" height="36" viewBox="0 0 14 36" fill="none" xmlns="http://www.w3.org/2000/svg">
<path d="M1.90069 35.8053C2.948 35.8053 3.80138 34.9519 3.80138 33.9046V32.4365H10.1986V33.9046C10.1986 34.9519 11.052 35.8053 12.0993 35.8053C13.1481 35.8053 14 34.9519 14 33.9046V26.8302C14 25.1354 13.0885 23.5823 11.6711 22.7275C13.1571 21.0551 14 18.877 14 16.6255V16.2466C14 13.9968 13.1556 11.82 11.6696 10.1491C13.0884 9.28979 14 7.73822 14 6.04801V1.90069C14 0.853374 13.1466 0 12.0993 0C11.052 0 10.1986 0.853374 10.1986 1.90069V1.98274H3.80138V1.90069C3.80138 0.853374 2.948 0 1.90069 0C0.851884 0 0 0.853374 0 1.90069V6.04801C0 7.73834 0.91303 9.2914 2.33035 10.1491C0.842947 11.82 0 13.9982 0 16.2466V16.6255C0 18.8768 0.842909 21.0566 2.32887 22.7275C0.911579 23.5824 0 25.1354 0 26.8302V33.9046C0 34.9519 0.853373 35.8053 1.90069 35.8053ZM10.1988 31.2432H3.80153V28.8561H10.1988V31.2432ZM10.1988 27.6626H3.80153V26.8301C3.80153 26.2781 4.2506 25.8291 4.80259 25.8291C5.55151 25.8291 6.29 25.7351 7.00015 25.5575C7.71179 25.7351 8.45028 25.8291 9.19771 25.8291C9.74971 25.8291 10.1988 26.2781 10.1988 26.8301V27.6626ZM12.8066 26.8301V33.9045C12.8066 34.2954 12.4888 34.6117 12.0994 34.6117C11.7101 34.6117 11.3923 34.2939 11.3923 33.9045V26.8301C11.3923 25.6605 10.4733 24.7027 9.31852 24.6385C9.3394 24.6266 9.3588 24.6117 9.37968 24.5997C9.59153 24.4774 9.79743 24.3461 9.99733 24.2074C10.0391 24.179 10.0809 24.1507 10.1227 24.1209C10.336 23.9687 10.5434 23.8061 10.7433 23.6345C10.7597 23.6211 10.7761 23.6091 10.7925 23.5957C12.0099 24.194 12.8051 25.4517 12.8051 26.8286L12.8066 26.8301ZM11.3923 6.04805V1.90072C11.3923 1.50986 11.7101 1.19355 12.0995 1.19355C12.4903 1.19355 12.8066 1.51132 12.8066 1.90072V6.04805C12.8066 7.42061 12.01 8.67676 10.7926 9.27948C10.7777 9.26605 10.7598 9.25412 10.7434 9.24069C10.5434 9.06912 10.3361 8.908 10.1227 8.75435C10.081 8.72451 10.0392 8.69765 9.99741 8.66782C9.79601 8.52907 9.59013 8.39779 9.37827 8.27547C9.35739 8.26353 9.33949 8.24861 9.3186 8.23668C10.4733 8.17402 11.3923 7.21472 11.3923 6.04508L11.3923 6.04805ZM3.80153 3.17616H10.1988V4.69195H3.80153V3.17616ZM3.80153 5.88546H10.1988V6.04808C10.1988 6.60008 9.74971 7.04914 9.19771 7.04914C8.45028 7.04914 7.71328 7.14313 7.00015 7.32067C6.28702 7.14314 5.55002 7.04914 4.80259 7.04914C4.2506 7.04914 3.80153 6.60008 3.80153 6.04808V5.88546ZM1.19371 16.6241V16.2451C1.19371 14.1624 2.02321 12.1455 3.4793 10.6595C3.48527 10.6609 3.48974 10.6609 3.49422 10.6624C3.68518 10.7176 3.87763 10.7579 4.07158 10.7878C4.11633 10.7952 4.16109 10.8012 4.20584 10.8057C4.40277 10.831 4.60121 10.8474 4.80111 10.8474C4.98312 10.8474 5.16215 10.8579 5.34119 10.8758C5.35015 10.8758 5.3576 10.8788 5.36656 10.8788C3.65385 12.0961 2.60654 14.0684 2.60654 16.2437V16.4361V16.4376V16.4391V16.6211C2.60654 18.7978 3.65236 20.7746 5.36656 21.9917C5.3576 21.9917 5.35015 21.9947 5.34119 21.9947C5.16217 22.0126 4.98314 22.0231 4.80111 22.0231C4.6012 22.0231 4.40276 22.041 4.20584 22.0649C4.16109 22.0708 4.11633 22.0768 4.07158 22.0828C3.87763 22.1126 3.68369 22.1529 3.49422 22.2081C3.48825 22.2096 3.48228 22.2096 3.47781 22.2111C2.02172 20.7251 1.19222 18.7066 1.19222 16.6193L1.19371 16.6241ZM9.4769 13.5701C9.86925 14.2549 10.108 15.0262 10.1691 15.8438H3.833C3.89268 15.0262 4.13287 14.2549 4.52524 13.5701H9.47843H9.4769ZM5.45332 12.3766C5.89643 11.9499 6.41558 11.5949 7.00042 11.3323C7.58523 11.5949 8.10441 11.9499 8.54752 12.3766H5.45332ZM4.52387 19.3051C4.133 18.6218 3.8943 17.8535 3.83312 17.0374H10.1677C10.1066 17.8535 9.86785 18.6218 9.47698 19.3051H4.52387ZM8.54897 20.4986C8.10438 20.9268 7.58522 21.2834 7.00038 21.546C6.41405 21.2834 5.8949 20.9283 5.45179 20.4986H8.54897ZM1.19386 26.8302C1.19386 25.3338 2.13374 23.9792 3.53464 23.4555C3.94491 23.3004 4.37159 23.2198 4.80275 23.2198C5.01012 23.2198 5.21748 23.2109 5.42189 23.1915C5.98733 23.1378 6.54081 23.0065 7.07639 22.8096C7.12413 22.7917 7.17187 22.7797 7.21961 22.7603C9.75433 21.7578 11.391 19.3484 11.391 16.6243V16.4423V16.4408V16.4393V16.2469C11.391 13.5256 9.75288 11.1207 7.21808 10.1166C6.44529 9.81223 5.63221 9.65709 4.80122 9.65709C4.36857 9.65709 3.94189 9.57802 3.53162 9.42137C2.13221 8.89324 1.19233 7.53859 1.19233 6.0482V1.90088C1.19233 1.51002 1.51011 1.19371 1.89951 1.19371C2.2889 1.19371 2.60668 1.51148 2.60668 1.90088V6.0482C2.60668 7.25814 3.59132 8.24278 4.80126 8.24278C5.49797 8.24278 6.18574 8.3323 6.84815 8.50983C8.11625 8.84104 9.29785 9.50047 10.2691 10.4165C11.8803 11.9218 12.8053 14.0463 12.8053 16.247V16.6259C12.8053 18.8309 11.8803 20.9585 10.2676 22.4651C9.29782 23.3797 8.11625 24.0376 6.84517 24.3703C6.18723 24.5463 5.49949 24.6359 4.80275 24.6359C3.59281 24.6359 2.60817 25.6205 2.60817 26.8304V33.9048C2.60817 34.2957 2.29039 34.612 1.90099 34.612C1.51013 34.612 1.19382 34.2942 1.19382 33.9048L1.19386 26.8302Z" fill="#E1DAF5"/>
</svg>
