<svg width="33" height="35" viewBox="0 0 33 35" fill="none" xmlns="http://www.w3.org/2000/svg">
<path d="M0.00111996 31.6491C0.00111996 33.4937 1.50155 34.9941 3.34612 34.9941H28.9164C30.7609 34.9941 32.2614 33.4937 32.2614 31.6491C32.2614 29.9373 30.968 28.5243 29.3071 28.3289V14.1193C29.3071 9.77127 25.8571 6.16082 21.5513 5.90699C20.6998 4.58588 19.2853 3.66435 17.6478 3.48498V2.47303C17.6478 1.10967 16.5382 0 15.1748 0H10.4796C9.11622 0 8.00655 1.10967 8.00655 2.47303V13.5492C8.00655 14.7158 8.82166 15.6898 9.9357 15.9494V18.0491C9.9357 19.4125 11.0454 20.5222 12.4087 20.5222H13.2443C14.6076 20.5222 15.7173 19.4125 15.7173 18.0491V15.9567C16.6403 15.7481 17.3665 15.0249 17.5794 14.1034C19.214 13.9459 20.6357 13.0491 21.5049 11.7513C22.6379 11.9584 23.4865 12.9383 23.4865 14.1194V28.3044H18.9518V26.3373C18.9518 25.0104 17.8728 23.9314 16.5459 23.9314H9.10472C7.7778 23.9314 6.69877 25.0104 6.69877 26.3373V28.3044H3.345C1.50043 28.3044 0 29.8048 0 31.6494L0.00111996 31.6491ZM7.8663 26.3372C7.8663 25.6548 8.42187 25.0978 9.10573 25.0978H16.5469C17.2293 25.0978 17.7863 25.6534 17.7863 26.3372V28.227H7.86802V26.3372H7.8663ZM14.5489 18.0491C14.5489 18.7695 13.9627 19.3556 13.2424 19.3556H12.4069C11.6865 19.3556 11.1004 18.7695 11.1004 18.0491V16.0223H14.5489V18.0491ZM15.1322 14.8543H10.4776C9.75731 14.8543 9.17113 14.2681 9.17113 13.5478L9.17259 2.47158C9.17259 1.75124 9.75877 1.16507 10.4791 1.16507H15.1743C15.8947 1.16507 16.4808 1.75124 16.4808 2.47158V3.48353C13.8095 3.77516 11.7244 6.0426 11.7244 8.78982C11.7244 11.4962 13.7512 13.7329 16.3644 14.0771C16.1588 14.5335 15.6936 14.8528 15.1322 14.8528L15.1322 14.8543ZM17.0628 12.9616C14.7618 12.9616 12.8894 11.0893 12.8894 8.78825C12.8894 6.48715 14.7588 4.61787 17.0583 4.61489H17.0612H17.0641C19.3637 4.61635 21.233 6.48715 21.233 8.78825C21.233 11.0878 19.3608 12.9616 17.0597 12.9616H17.0628ZM22.0495 10.6781C22.2741 10.089 22.401 9.45476 22.401 8.78836C22.401 8.21092 22.3062 7.65685 22.137 7.13626C25.52 7.65827 28.1388 10.6081 28.1388 14.1179V28.3028H24.6508V14.1179C24.6508 12.4891 23.5661 11.1126 22.0495 10.6781ZM3.34593 29.471H28.9162C30.1177 29.471 31.0947 30.4479 31.0947 31.6494C31.0947 32.8509 30.1177 33.8279 28.9162 33.8279H3.34593C2.14439 33.8279 1.16746 32.8509 1.16746 31.6494C1.16746 30.4479 2.14443 29.471 3.34593 29.471Z" fill="#E1DAF5"/>
<path d="M17.0649 6.1095C15.5863 6.1095 14.3848 7.31104 14.3848 8.78959C14.3848 10.2682 15.5863 11.4697 17.0649 11.4697C18.5434 11.4697 19.745 10.2682 19.745 8.78959C19.745 7.31249 18.5434 6.1095 17.0649 6.1095ZM17.0649 10.303C16.2308 10.303 15.5513 9.62352 15.5513 8.78945C15.5513 7.95537 16.2308 7.27587 17.0649 7.27587C17.8989 7.27587 18.5784 7.95537 18.5784 8.78945C18.5784 9.62352 17.8989 10.303 17.0649 10.303Z" fill="#E1DAF5"/>
</svg>
