<svg width="61" height="61" viewBox="0 0 61 61" fill="none" xmlns="http://www.w3.org/2000/svg">
<path d="M30.401 60.8003C47.1904 60.8003 60.801 47.1897 60.801 30.4003C60.801 13.6108 47.1904 0.000259399 30.401 0.000259399C13.6115 0.000259399 0.000976562 13.6108 0.000976562 30.4003C0.000976562 47.1897 13.6115 60.8003 30.401 60.8003Z" fill="#D592FF"/>
<path d="M35.6263 20.0195H25.8455C25.5844 20.0195 25.3465 20.1686 25.2328 20.403C25.1192 20.6374 25.1476 20.9162 25.3092 21.1222C27.4986 23.9171 29.1039 27.0654 30.0805 30.4802C30.164 30.7732 30.4321 30.9738 30.7357 30.9738C31.0394 30.9738 31.3075 30.7714 31.391 30.4802C32.3676 27.0673 33.9711 23.9188 36.1623 21.1222C36.3221 20.9162 36.3523 20.6374 36.2386 20.403C36.1232 20.1686 35.8856 20.0195 35.6263 20.0195ZM30.7341 28.0938C29.8586 25.7072 28.6778 23.4611 27.2039 21.385H34.2659C32.7921 23.4608 31.6095 25.7071 30.7341 28.0938Z" fill="#3C0B6D"/>
<path d="M47.4777 24.5512C44.7698 24.5512 42.9425 26.1192 42.4346 27.5593C39.3289 26.9911 38.5582 26.2186 38.5493 26.2097C38.5635 26.2257 38.5688 26.2328 38.5688 26.2328L38.3913 26.3731L38.5475 25.4444C38.5671 25.329 38.5884 25.2171 38.615 25.1034C39.2845 22.1416 42.0084 19.9912 45.091 19.9912C45.5758 19.9912 46.0623 20.0445 46.5382 20.1475C46.556 20.151 46.572 20.1617 46.5826 20.1759L47.7688 21.925C47.9393 22.1771 48.2571 22.2854 48.5466 22.1896L50.2566 21.6284C50.2725 21.6231 50.2921 21.6231 50.3081 21.6284L51.5742 22.0439C51.7819 22.1114 52.0092 22.0759 52.1868 21.948C52.3644 21.8202 52.4691 21.6142 52.4691 21.3958V17.8479C52.4674 15.9195 50.8763 14.348 48.9213 14.3462C47.3391 14.3462 45.7676 14.5735 44.2527 15.021L42.6261 15.5005C41.685 15.7775 40.7119 15.9178 39.7299 15.9178C38.2792 15.9178 36.8764 15.6194 35.557 15.0281C34.0316 14.3463 32.4104 14 30.7361 14C29.0619 14 27.4404 14.3463 25.9153 15.0281C24.5959 15.6177 23.1931 15.9178 21.7423 15.9178C20.7603 15.9178 19.7873 15.7775 18.8461 15.4987L17.2178 15.0192C15.7032 14.5717 14.1316 14.3444 12.5479 14.3444C10.5946 14.3462 9.00177 15.9159 9 17.8461V21.3976C9 21.616 9.10477 21.822 9.28234 21.9498C9.45991 22.0777 9.6872 22.1132 9.89498 22.0457L11.1593 21.6302C11.177 21.6249 11.2001 21.6249 11.2108 21.6284L12.9225 22.1913C13.212 22.2872 13.5298 22.1771 13.7003 21.925L14.8829 20.1759C14.8918 20.1617 14.9078 20.1528 14.9256 20.1474C15.0427 20.1226 15.1599 20.0995 15.2754 20.08C15.6394 20.0196 16.0105 19.9894 16.3763 19.9894C19.6312 19.9894 22.3818 22.2836 22.9182 25.4426L23.0763 26.3749C22.6714 26.6359 21.6451 27.1491 19.4183 27.5557C18.9104 26.1156 17.0832 24.5477 14.3751 24.5477C11.1611 24.5477 9.18834 26.7567 9.18834 28.3388C9.18834 29.921 11.1611 32.1299 14.3751 32.1299C17.2039 32.1299 19.0701 30.4199 19.4787 28.9301C21.4054 28.5927 22.5969 28.1665 23.3214 27.8042L23.6925 29.9866C23.9145 31.3149 24.5449 32.5188 25.5126 33.467L27.0308 34.9604C27.0415 34.971 27.0486 34.9853 27.0486 34.9977V48.312C27.0486 48.6884 27.354 48.9939 27.7305 48.9939H33.7446C34.1211 48.9939 34.4265 48.6884 34.4265 48.312V34.9995C34.4265 34.9853 34.4318 34.9711 34.4442 34.9587L35.9625 33.4653C36.9302 32.517 37.5588 31.3131 37.7826 29.9849L38.1839 27.6107C38.8498 28.0049 40.0999 28.5288 42.3764 28.9265C42.783 30.4163 44.6511 32.1264 47.48 32.1264C50.694 32.1264 52.6668 29.9191 52.6668 28.3352C52.6668 26.7584 50.6917 24.5512 47.4777 24.5512ZM14.3768 30.7699C12.0044 30.7699 10.5536 29.1984 10.5536 28.3425C10.5536 27.4867 12.0062 25.9152 14.3768 25.9152C16.7492 25.9152 18.1999 27.4867 18.1999 28.3425C18.1999 29.1984 16.7492 30.7699 14.3768 30.7699ZM37.2055 25.219L36.4349 29.7631C36.2591 30.8054 35.7654 31.7501 35.0037 32.4959L33.4854 33.9893C33.212 34.2574 33.061 34.6143 33.0593 34.9997V47.6321L28.4102 47.6339V35.0015C28.4102 34.625 28.2557 34.2575 27.9858 33.9928L26.4658 32.4977C25.704 31.7519 25.2104 30.8072 25.0364 29.7631L24.2657 25.219C23.6193 21.4012 20.3023 18.6294 16.3796 18.6294C15.9392 18.6294 15.4953 18.6649 15.0549 18.7377C14.9146 18.7608 14.7743 18.7874 14.634 18.8176C14.2718 18.8975 13.9593 19.1088 13.7533 19.4142L12.8583 20.7372L11.6331 20.3341C11.3436 20.24 11.0293 20.24 10.7345 20.3359L10.3634 20.4584L10.3652 17.8481C10.367 16.669 11.3472 15.7101 12.5493 15.7101C14.0019 15.7101 15.442 15.9179 16.8324 16.3299L18.4607 16.8093C19.5261 17.1236 20.6306 17.2834 21.7422 17.2834C23.3848 17.2834 24.9758 16.9443 26.4708 16.2748C27.8186 15.6728 29.2534 15.3656 30.7343 15.3656C32.2152 15.3656 33.65 15.6711 34.9978 16.2748C36.493 16.9443 38.084 17.2834 39.7282 17.2834C40.8398 17.2834 41.9443 17.1236 43.0097 16.8093L44.6381 16.3299C46.0285 15.9197 47.4686 15.7101 48.9211 15.7101C50.125 15.7119 51.1052 16.6708 51.1052 17.8481V20.4566L50.7323 20.3341C50.4429 20.24 50.1268 20.2382 49.832 20.3341L48.6121 20.7372L47.7154 19.4142C47.5094 19.1088 47.1969 18.8975 46.8328 18.8176C46.2593 18.6915 45.675 18.6294 45.0926 18.6294C41.3778 18.6294 38.0943 21.2272 37.2865 24.8035C37.2563 24.942 37.2297 25.0788 37.2048 25.219L37.2055 25.219ZM47.4782 30.7699C45.1058 30.7699 43.6551 29.1984 43.6551 28.3425C43.6551 27.4867 45.1076 25.9152 47.4782 25.9152C49.8506 25.9152 51.3013 27.4867 51.3013 28.3425C51.3031 29.1984 49.8506 30.7699 47.4782 30.7699Z" fill="#3C0B6D"/>
</svg>
