<svg width="52" height="58" viewBox="0 0 52 58" fill="none" xmlns="http://www.w3.org/2000/svg">
<path d="M39.2657 43.2657C38.682 43.2657 38.2045 43.7432 38.2045 44.3269V54.122C38.2045 54.7057 37.7269 55.1833 37.1432 55.1833H3.18426C2.60059 55.1833 2.12305 54.7057 2.12305 54.122V9.55089C2.12305 8.96722 2.60059 8.48967 3.18426 8.48967H8.49035V9.02028C8.49035 10.4847 9.67892 11.6733 11.1434 11.6733H29.1837C30.6482 11.6733 31.8367 10.4847 31.8367 9.02028V8.48967H37.1428C37.7265 8.48967 38.204 8.96722 38.204 9.55089V12.4904C38.204 13.0741 38.6816 13.5517 39.2653 13.5517C39.8489 13.5517 40.3265 13.0741 40.3265 12.4904V9.55089C40.3265 7.7999 38.8938 6.36724 37.1428 6.36724H31.8367V5.83663C31.8367 4.37218 30.6482 3.18362 29.1837 3.18362H27.0613C26.7642 3.18362 26.5307 2.95015 26.5307 2.65301C26.5307 1.18856 25.3421 0 23.8777 0H16.4488C14.9844 0 13.7958 1.18856 13.7958 2.65301C13.7958 2.95015 13.5623 3.18362 13.2652 3.18362H11.1428C9.67831 3.18362 8.48974 4.37218 8.48974 5.83663V6.36724H3.18365C1.43266 6.36724 0 7.7999 0 9.55089V54.122C0 55.873 1.43266 57.3057 3.18365 57.3057H37.1426C38.8936 57.3057 40.3263 55.873 40.3263 54.122V44.3269C40.3263 43.7432 39.8493 43.2657 39.2657 43.2657ZM10.6124 5.8368C10.6124 5.53966 10.8459 5.30619 11.1431 5.30619H13.2655C14.7299 5.30619 15.9185 4.11763 15.9185 2.65318C15.9185 2.35604 16.152 2.12257 16.4491 2.12257H23.878C24.1751 2.12257 24.4086 2.35604 24.4086 2.65318C24.4086 4.11763 25.5972 5.30619 27.0616 5.30619H29.184C29.4812 5.30619 29.7146 5.53966 29.7146 5.8368V9.02045C29.7146 9.31759 29.4812 9.55106 29.184 9.55106H11.1437C10.8465 9.55106 10.6131 9.31759 10.6131 9.02045L10.6124 5.8368Z" fill="white"/>
<path d="M39.2659 15.674C32.2404 15.674 26.5312 21.3834 26.5312 28.4087C26.5312 35.4339 32.2406 41.1433 39.2659 41.1433C46.2912 41.1433 52.0005 35.4339 52.0005 28.4087C52.0005 21.3834 46.2912 15.674 39.2659 15.674ZM39.2659 39.0208C33.4185 39.0208 28.6537 34.256 28.6537 28.4087C28.6537 22.5613 33.4185 17.7965 39.2659 17.7965C45.1132 17.7965 49.878 22.5613 49.878 28.4087C49.878 34.256 45.1132 39.0208 39.2659 39.0208Z" fill="white"/>
<path d="M45.1019 25.0127H42.661V22.5719C42.661 21.9882 42.1835 21.5107 41.5998 21.5107H36.9305C36.3468 21.5107 35.8692 21.9882 35.8692 22.5719V25.0127H33.4284C32.8447 25.0127 32.3672 25.4903 32.3672 26.074V30.7433C32.3672 31.327 32.8447 31.8045 33.4284 31.8045H35.8692V34.2454C35.8692 34.829 36.3468 35.3066 36.9305 35.3066H41.5998C42.1835 35.3066 42.661 34.829 42.661 34.2454V31.8045H45.1019C45.6855 31.8045 46.1631 31.327 46.1631 30.7433V26.074C46.1631 25.4903 45.6855 25.0127 45.1019 25.0127ZM44.0406 29.6821H41.5998C41.0161 29.6821 40.5386 30.1596 40.5386 30.7433V33.1841H37.9917V30.7433C37.9917 30.1596 37.5141 29.6821 36.9305 29.6821H34.4896V27.1352H36.9305C37.5141 27.1352 37.9917 26.6576 37.9917 26.074V23.6331H40.5386V26.074C40.5386 26.6576 41.0161 27.1352 41.5998 27.1352H44.0406V29.6821Z" fill="white"/>
<path d="M13.7964 18.0403C13.7964 17.4566 13.3188 16.9791 12.7352 16.9791H6.36786C5.78419 16.9791 5.30664 17.4566 5.30664 18.0403V24.4076C5.30664 24.9913 5.78419 25.4688 6.36786 25.4688H12.7352C13.3188 25.4688 13.7964 24.9913 13.7964 24.4076V18.0403ZM11.6739 23.3464H7.42908V19.1015H11.6739V23.3464Z" fill="white"/>
<path d="M27.5928 19.1018C27.5928 18.5182 27.1153 18.0406 26.5316 18.0406H18.1159C17.5322 18.0406 17.0547 18.5182 17.0547 19.1018C17.0547 19.6855 17.5322 20.1631 18.1159 20.1631H26.5316C27.1153 20.1631 27.5928 19.6855 27.5928 19.1018Z" fill="white"/>
<path d="M18.1159 24.4076H24.4089C24.9926 24.4076 25.4701 23.93 25.4701 23.3464C25.4701 22.7627 24.9926 22.2852 24.4089 22.2852H18.1159C17.5322 22.2852 17.0547 22.7627 17.0547 23.3464C17.0547 23.93 17.5322 24.4076 18.1159 24.4076Z" fill="white"/>
<path d="M13.7964 29.7133C13.7964 29.1297 13.3188 28.6521 12.7352 28.6521H6.36786C5.78419 28.6521 5.30664 29.1297 5.30664 29.7133V36.0807C5.30664 36.6643 5.78419 37.1419 6.36786 37.1419H12.7352C13.3188 37.1419 13.7964 36.6643 13.7964 36.0807V29.7133ZM11.6739 35.0194H7.42908V30.7746H11.6739V35.0194Z" fill="white"/>
<path d="M18.1159 31.8365H24.4089C24.9926 31.8365 25.4701 31.3589 25.4701 30.7752C25.4701 30.1916 24.9926 29.714 24.4089 29.714H18.1159C17.5322 29.714 17.0547 30.1916 17.0547 30.7752C17.0547 31.3589 17.5322 31.8365 18.1159 31.8365Z" fill="white"/>
<path d="M18.1159 36.0813H25.4701C26.0537 36.0813 26.5313 35.6038 26.5313 35.0201C26.5313 34.4364 26.0537 33.9589 25.4701 33.9589H18.1159C17.5322 33.9589 17.0547 34.4364 17.0547 35.0201C17.0547 35.6038 17.5322 36.0813 18.1159 36.0813Z" fill="white"/>
<path d="M12.7371 40.3262H6.36981C5.78614 40.3262 5.30859 40.8037 5.30859 41.3874V47.7547C5.30859 48.3384 5.78614 48.8159 6.36981 48.8159H12.7371C13.3208 48.8159 13.7983 48.3384 13.7983 47.7547V41.3874C13.7983 40.8037 13.3208 40.3262 12.7371 40.3262ZM11.6759 46.6935H7.43103V42.4486H11.6759V46.6935Z" fill="white"/>
<path d="M26.5316 41.3871H18.1159C17.5322 41.3871 17.0547 41.8646 17.0547 42.4483C17.0547 43.032 17.5322 43.5095 18.1159 43.5095H26.5316C27.1153 43.5095 27.5928 43.032 27.5928 42.4483C27.5928 41.8646 27.1153 41.3871 26.5316 41.3871Z" fill="white"/>
<path d="M26.5316 45.632H18.1159C17.5322 45.632 17.0547 46.1095 17.0547 46.6932C17.0547 47.2768 17.5322 47.7544 18.1159 47.7544H26.5316C27.1153 47.7544 27.5928 47.2768 27.5928 46.6932C27.5928 46.1095 27.1153 45.632 26.5316 45.632Z" fill="white"/>
</svg>
