<svg width="65" height="65" viewBox="0 0 65 65" fill="none" xmlns="http://www.w3.org/2000/svg">
<path d="M32.3161 64.6322C50.1638 64.6322 64.6322 50.1638 64.6322 32.3161C64.6322 14.4684 50.1638 0 32.3161 0C14.4684 0 0 14.4684 0 32.3161C0 50.1638 14.4684 64.6322 32.3161 64.6322Z" fill="#471975"/>
<g clip-path="url(#clip0_2175_411)">
<path d="M42.634 47.9998C42.5494 47.9998 42.4647 47.9813 42.3874 47.9407L39.2582 46.3925C36.7954 45.1731 35.2676 42.7086 35.2676 39.9521V32.1815C35.2676 31.8712 35.5179 31.6199 35.8271 31.6199C38.6986 31.6199 40.8523 30.892 42.2328 29.4509C42.4426 29.2292 42.8292 29.2292 43.039 29.4509C44.4747 30.9511 46.4516 31.6199 49.4446 31.6199C49.7539 31.6199 50.0042 31.8712 50.0042 32.1815V39.9521C50.0042 42.7086 48.4764 45.1731 46.0136 46.3925L42.8844 47.9407C42.8071 47.9776 42.7224 47.9998 42.6377 47.9998H42.634ZM36.3867 32.7358V39.9558C36.3867 42.28 37.6789 44.3639 39.7552 45.3912L42.6377 46.8174L45.5203 45.3912C47.5966 44.3639 48.8887 42.2837 48.8887 39.9558V32.7358C46.124 32.6582 44.1545 31.9931 42.6377 30.6223C41.1504 31.9414 39.052 32.6508 36.3904 32.7358H36.3867Z" fill="#E1DAF5"/>
<path d="M43.5868 42.9157H41.6835C41.3007 42.9157 40.9877 42.6016 40.9877 42.2174V40.211H38.9888C38.6059 40.211 38.293 39.8969 38.293 39.5126V37.6023C38.293 37.218 38.6059 36.904 38.9888 36.904H40.9877V34.8976C40.9877 34.5133 41.3007 34.1992 41.6835 34.1992H43.5868C43.9697 34.1992 44.2826 34.5133 44.2826 34.8976V36.904H46.2816C46.6645 36.904 46.9774 37.218 46.9774 37.6023V39.5126C46.9774 39.8969 46.6645 40.211 46.2816 40.211H44.2826V42.2174C44.2826 42.6016 43.9697 42.9157 43.5868 42.9157ZM42.1032 41.7924H43.1671V39.7861C43.1671 39.4018 43.4801 39.0877 43.8629 39.0877H45.8619V38.0198H43.8629C43.4801 38.0198 43.1671 37.7058 43.1671 37.3215V35.3151H42.1032V37.3215C42.1032 37.7058 41.7903 38.0198 41.4074 38.0198H39.4084V39.0877H41.4074C41.7903 39.0877 42.1032 39.4018 42.1032 39.7861V41.7924Z" fill="#E1DAF5"/>
<path d="M34.3244 45.757H19.7939C19.4847 45.757 19.2344 45.5058 19.2344 45.1954V19.0865C19.2344 18.7762 19.4847 18.5249 19.7939 18.5249H40.3987C40.7079 18.5249 40.9583 18.7762 40.9583 19.0865V28.0247C40.9583 28.3351 40.7079 28.5864 40.3987 28.5864C40.0895 28.5864 39.8391 28.3351 39.8391 28.0247V19.6482H20.3535V44.6374H34.3281C34.6373 44.6374 34.8877 44.8887 34.8877 45.1991C34.8877 45.5095 34.6373 45.7607 34.3281 45.7607L34.3244 45.757Z" fill="#E1DAF5"/>
<path d="M37.2955 48.0001H19.1978C17.9866 48.0001 17 47.0098 17 45.7941V18.4881C17 17.2725 17.9866 16.2822 19.1978 16.2822H22.9933C23.3025 16.2822 23.5529 16.5335 23.5529 16.8439C23.5529 17.1542 23.3025 17.4055 22.9933 17.4055H19.1978C18.6014 17.4055 18.1191 17.8895 18.1191 18.4881V45.7978C18.1191 46.3964 18.6014 46.8805 19.1978 46.8805H37.2955C37.6048 46.8805 37.8551 47.1317 37.8551 47.4421C37.8551 47.7525 37.6048 48.0038 37.2955 48.0038V48.0001Z" fill="#E1DAF5"/>
<path d="M42.6339 27.2379C42.3247 27.2379 42.0744 26.9866 42.0744 26.6762V18.4881C42.0744 17.8895 41.5921 17.4055 40.9957 17.4055H37.2002C36.891 17.4055 36.6406 17.1542 36.6406 16.8439C36.6406 16.5335 36.891 16.2822 37.2002 16.2822H40.9957C42.2069 16.2822 43.1935 17.2725 43.1935 18.4881V26.6799C43.1935 26.9903 42.9432 27.2416 42.6339 27.2416V27.2379Z" fill="#E1DAF5"/>
<path d="M33.1431 40.7395H24.1826C23.8734 40.7395 23.623 40.4882 23.623 40.1778C23.623 39.8675 23.8734 39.6162 24.1826 39.6162H33.1431C33.4524 39.6162 33.7027 39.8675 33.7027 40.1778C33.7027 40.4882 33.4524 40.7395 33.1431 40.7395Z" fill="#E1DAF5"/>
<path d="M33.1431 34.842H24.1826C23.8734 34.842 23.623 34.5908 23.623 34.2804C23.623 33.97 23.8734 33.7188 24.1826 33.7188H33.1431C33.4524 33.7188 33.7027 33.97 33.7027 34.2804C33.7027 34.5908 33.4524 34.842 33.1431 34.842Z" fill="#E1DAF5"/>
<path d="M35.8269 28.9411H24.1826C23.8734 28.9411 23.623 28.6899 23.623 28.3795C23.623 28.0691 23.8734 27.8179 24.1826 27.8179H35.8269C36.1361 27.8179 36.3864 28.0691 36.3864 28.3795C36.3864 28.6899 36.1361 28.9411 35.8269 28.9411Z" fill="#E1DAF5"/>
<path d="M34.9648 19.6483H25.2275C24.9183 19.6483 24.668 19.397 24.668 19.0867V16.4817C24.668 15.6651 25.3306 15 26.1442 15H34.0482C34.8617 15 35.5244 15.6651 35.5244 16.4817V19.0867C35.5244 19.397 35.2741 19.6483 34.9648 19.6483ZM25.7871 18.525H34.4053V16.4817C34.4053 16.2822 34.2433 16.1233 34.0482 16.1233H26.1442C25.9454 16.1233 25.7871 16.2859 25.7871 16.4817V18.525Z" fill="#E1DAF5"/>
</g>
<defs>
<clipPath id="clip0_2175_411">
<rect width="33" height="33" fill="white" transform="translate(17 15)"/>
</clipPath>
</defs>
</svg>
