<svg width="65" height="65" viewBox="0 0 65 65" fill="none" xmlns="http://www.w3.org/2000/svg">
<path d="M32.3161 64.6322C50.1638 64.6322 64.6322 50.1638 64.6322 32.3161C64.6322 14.4684 50.1638 0 32.3161 0C14.4684 0 0 14.4684 0 32.3161C0 50.1638 14.4684 64.6322 32.3161 64.6322Z" fill="#471975"/>
<path d="M35.65 32.6963L37.3677 34.4139L34.413 37.3686L32.6953 35.651" stroke="#E1DAF5" stroke-linecap="round" stroke-linejoin="round"/>
<path d="M34.1739 17.4614C29.5587 12.8462 22.0765 12.8462 17.4614 17.4614C12.8462 22.0765 12.8462 29.5587 17.4614 34.1739C22.0765 38.789 29.5587 38.789 34.1739 34.1739C38.789 29.5587 38.789 22.0765 34.1739 17.4614ZM31.9433 31.9433C28.5597 35.3269 23.0746 35.3269 19.6919 31.9433C16.3083 28.5597 16.3083 23.0746 19.6919 19.6919C23.0755 16.3083 28.5606 16.3083 31.9433 19.6919C35.3269 23.0755 35.3269 28.5606 31.9433 31.9433Z" stroke="#E1DAF5" stroke-linecap="round" stroke-linejoin="round"/>
<path d="M48.1719 48.1709C47.0667 49.2761 45.2744 49.2761 44.1683 48.1709L34.3578 38.3604C34.0995 38.1021 34.0995 37.6833 34.3578 37.425L37.425 34.3578C37.6833 34.0995 38.1021 34.0995 38.3604 34.3578L48.1709 44.1683C49.2761 45.2734 49.2761 47.0658 48.1709 48.1719L48.1719 48.1709Z" stroke="#E1DAF5" stroke-linecap="round" stroke-linejoin="round"/>
<path d="M20.5 29V27" stroke="#E1DAF5" stroke-linecap="round" stroke-linejoin="round"/>
<path d="M23 29V25" stroke="#E1DAF5" stroke-linecap="round" stroke-linejoin="round"/>
<path d="M26 29V26" stroke="#E1DAF5" stroke-linecap="round" stroke-linejoin="round"/>
<path d="M28.5 29V24" stroke="#E1DAF5" stroke-linecap="round" stroke-linejoin="round"/>
<path d="M31 29V23" stroke="#E1DAF5" stroke-linecap="round" stroke-linejoin="round"/>
</svg>
