<svg width="57" height="57" viewBox="0 0 57 57" fill="none" xmlns="http://www.w3.org/2000/svg">
<path d="M28.4395 56.8789C44.1461 56.8789 56.8789 44.1461 56.8789 28.4395C56.8789 12.7328 44.1461 0 28.4395 0C12.7328 0 0 12.7328 0 28.4395C0 44.1461 12.7328 56.8789 28.4395 56.8789Z" fill="#E1DAF5"/>
<path d="M27.8823 22.2294H24.2205V18.5515C24.2205 17.9144 23.7063 17.3979 23.072 17.3979C22.4378 17.3979 21.9235 17.9144 21.9235 18.5515V22.2294H18.2618C17.6276 22.2294 17.1133 22.746 17.1133 23.383C17.1133 24.02 17.6276 24.5366 18.2618 24.5366H21.9235V28.2145C21.9235 28.8515 22.4378 29.3681 23.072 29.3681C23.7063 29.3681 24.2205 28.8515 24.2205 28.2145V24.5366H27.8823C28.5165 24.5366 29.0308 24.02 29.0308 23.383C29.0308 22.746 28.5165 22.2294 27.8823 22.2294Z" fill="#3C0B6D"/>
<path d="M23.0723 11.2347C29.7452 11.2348 35.1695 16.6861 35.1699 23.3831C35.1699 26.1376 34.2493 28.6802 32.7051 30.72L34.3857 32.4066C35.055 32.1249 35.8556 32.2511 36.4033 32.8011L42.9707 39.3978H42.9697C44.0611 40.4939 44.0611 42.2704 42.9697 43.3665C41.8772 44.4634 40.1051 44.4636 39.0127 43.3665L32.4453 36.7698C31.8976 36.2199 31.7725 35.4163 32.0537 34.7454L30.376 33.0589C28.3455 34.6084 25.8145 35.5315 23.0723 35.5316C16.3992 35.5316 10.9747 30.08 10.9746 23.3831C10.9746 16.6862 16.3992 11.2347 23.0723 11.2347ZM23.0723 14.5423C18.2223 14.5423 14.2716 18.5063 14.2715 23.3831C14.2715 28.26 18.2222 32.2249 23.0723 32.2249C27.9221 32.2248 31.872 28.2595 31.8721 23.3831C31.8721 18.5067 27.9222 14.5425 23.0723 14.5423Z" stroke="#3C0B6D"/>
</svg>
