<svg width="36" height="37" viewBox="0 0 36 37" fill="none" xmlns="http://www.w3.org/2000/svg">
<g clip-path="url(#clip0_2206_787)">
<path d="M19.1069 12.5486H15.4451V8.87062C15.4451 8.23359 14.9309 7.71704 14.2966 7.71704C13.6624 7.71704 13.1481 8.23359 13.1481 8.87062V12.5486H9.48639C8.85217 12.5486 8.33789 13.0651 8.33789 13.7021C8.33789 14.3392 8.85217 14.8557 9.48639 14.8557H13.1481V18.5336C13.1481 19.1707 13.6624 19.6872 14.2966 19.6872C14.9309 19.6872 15.4451 19.1707 15.4451 18.5336V14.8557H19.1069C19.7411 14.8557 20.2554 14.3392 20.2554 13.7021C20.2554 13.0651 19.7411 12.5486 19.1069 12.5486Z" fill="#E1DAF5"/>
<path d="M14.2969 1.55396C20.9698 1.55411 26.3941 7.00537 26.3945 13.7024C26.3945 16.4569 25.4739 18.9995 23.9297 21.0393L25.6104 22.7258C26.2796 22.4442 27.0802 22.5704 27.6279 23.1204L34.1953 29.717H34.1943C35.2857 30.8132 35.2857 32.5896 34.1943 33.6858C33.1018 34.7826 31.3297 34.7829 30.2373 33.6858L23.6699 27.0891C23.1222 26.5391 22.9971 25.7356 23.2783 25.0647L21.6006 23.3782C19.5701 24.9276 17.0391 25.8508 14.2969 25.8508C7.62379 25.8508 2.19928 20.3992 2.19922 13.7024C2.19922 7.00547 7.62377 1.55396 14.2969 1.55396ZM14.2969 4.86157C9.44688 4.86157 5.49619 8.8256 5.49609 13.7024C5.49609 18.5793 9.44682 22.5442 14.2969 22.5442C19.1468 22.544 23.0966 18.5788 23.0967 13.7024C23.0967 8.82593 19.1468 4.86173 14.2969 4.86157Z" stroke="#E1DAF5"/>
</g>
<defs>
<clipPath id="clip0_2206_787">
<rect width="36" height="37" fill="white"/>
</clipPath>
</defs>
</svg>
