<svg width="77" height="77" viewBox="0 0 77 77" fill="none" xmlns="http://www.w3.org/2000/svg">
<path d="M38.4966 76.9932C59.7577 76.9932 76.9932 59.7577 76.9932 38.4966C76.9932 17.2355 59.7577 0 38.4966 0C17.2355 0 0 17.2355 0 38.4966C0 59.7577 17.2355 76.9932 38.4966 76.9932Z" fill="#3C0B6D"/>
<g clip-path="url(#clip0_2208_2782)">
<path d="M54.3894 46.9044L45.4285 37.9435L54.429 28.943C55.9879 27.3842 55.9934 24.8615 54.4414 23.3095C52.8894 21.7575 50.3667 21.763 48.8078 23.3219L39.8074 32.3224L30.8465 23.3615C29.2944 21.8095 26.7718 21.815 25.2129 23.3739C23.654 24.9328 23.6485 27.4555 25.2005 29.0075L34.1614 37.9684L25.1609 46.9689C23.602 48.5278 23.5964 51.0504 25.1485 52.6024C26.7005 54.1545 29.2231 54.1489 30.782 52.59L39.7825 43.5895L48.7434 52.5504C50.2954 54.1024 52.8181 54.0969 54.377 52.538C55.9359 50.9791 55.9414 48.4565 54.3894 46.9044Z" fill="#E1DAF5"/>
</g>
<defs>
<clipPath id="clip0_2208_2782">
<rect width="41.618" height="37.4562" fill="white" transform="translate(18.7266 19.132)"/>
</clipPath>
</defs>
</svg>
