<svg width="65" height="65" viewBox="0 0 65 65" fill="none" xmlns="http://www.w3.org/2000/svg">
<path d="M32.3161 64.6322C50.1638 64.6322 64.6322 50.1638 64.6322 32.3161C64.6322 14.4684 50.1638 0 32.3161 0C14.4684 0 0 14.4684 0 32.3161C0 50.1638 14.4684 64.6322 32.3161 64.6322Z" fill="#471975"/>
<path d="M41.6523 31.5182C41.998 31.4371 42.3562 31.3948 42.727 31.3965L48.9536 31.4177C51.4647 31.4265 53.5132 33.4451 53.5042 35.9045L53.479 43.4695" stroke="#E1DAF5" stroke-width="1.2" stroke-linecap="round" stroke-linejoin="round"/>
<path d="M50.5551 38.168L50.5371 43.5151" stroke="#E1DAF5" stroke-width="1.2" stroke-linecap="round" stroke-linejoin="round"/>
<path d="M49.0939 27.6758C49.9131 25.9249 49.128 23.8552 47.3403 23.0528C45.5526 22.2505 43.4393 23.0194 42.6201 24.7702C41.8008 26.5211 42.5859 28.5909 44.3736 29.3932C46.1613 30.1955 48.2747 29.4266 49.0939 27.6758Z" stroke="#E1DAF5" stroke-width="1.2" stroke-linecap="round" stroke-linejoin="round"/>
<path d="M10.4941 43.3285L10.5193 35.7688V35.7635C10.5283 33.3041 12.5895 31.2979 15.1006 31.3067L21.3272 31.3278C21.6404 31.3278 21.9482 31.3613 22.2434 31.4213" stroke="#E1DAF5" stroke-width="1.2" stroke-linecap="round" stroke-linejoin="round"/>
<path d="M13.4907 38.0483L13.4727 43.3937" stroke="#E1DAF5" stroke-width="1.2" stroke-linecap="round" stroke-linejoin="round"/>
<path d="M19.7958 29.2695C21.5624 28.4234 22.2941 26.335 21.4302 24.6049C20.5663 22.8747 18.4339 22.1581 16.6674 23.0042C14.9008 23.8502 14.1691 25.9387 15.033 27.6688C15.8969 29.3989 18.0293 30.1156 19.7958 29.2695Z" stroke="#E1DAF5" stroke-width="1.2" stroke-linecap="round" stroke-linejoin="round"/>
<path d="M22.7988 43.4231L22.8204 37.1768C22.8312 34.2344 25.2974 31.8332 28.3018 31.8438L35.7524 31.8685C38.7568 31.879 41.2085 34.2943 41.1977 37.2368L41.1761 43.4831" stroke="#E1DAF5" stroke-width="1.2" stroke-linecap="round" stroke-linejoin="round"/>
<path d="M26.3759 39.9111L26.3633 43.4354" stroke="#E1DAF5" stroke-width="1.2" stroke-linecap="round" stroke-linejoin="round"/>
<path d="M37.6671 39.9463L37.6562 43.4723" stroke="#E1DAF5" stroke-width="1.2" stroke-linecap="round" stroke-linejoin="round"/>
<path d="M36.3072 25.6697C36.3 27.974 34.3865 29.8339 32.0337 29.8269C29.681 29.8198 27.7819 27.9458 27.7891 25.6415C27.7963 23.3373 29.7098 21.4773 32.0625 21.4844C34.4153 21.4914 36.3144 23.3655 36.3072 25.6697Z" stroke="#E1DAF5" stroke-width="1.2" stroke-linecap="round" stroke-linejoin="round"/>
</svg>
