<svg width="65" height="65" viewBox="0 0 65 65" fill="none" xmlns="http://www.w3.org/2000/svg">
<path d="M32.3161 64.6322C50.1638 64.6322 64.6322 50.1638 64.6322 32.3161C64.6322 14.4684 50.1638 0 32.3161 0C14.4684 0 0 14.4684 0 32.3161C0 50.1638 14.4684 64.6322 32.3161 64.6322Z" fill="#471975"/>
<g clip-path="url(#clip0_20_10099)">
<path d="M36.0755 19.3962C35.0432 20.1028 34.7788 21.5133 35.486 22.5457C35.5015 22.5683 35.519 22.5884 35.5345 22.6097L32.0547 27.789L33.3198 28.639L36.7995 23.4598C37.4078 23.6136 38.0769 23.5179 38.6354 23.1352C39.6678 22.4287 39.9322 21.0182 39.225 19.9858C38.5184 18.9534 37.1079 18.689 36.0755 19.3962Z" fill="#EAE7F3"/>
<path d="M25.1054 25.053L19.4471 26.3943C18.8782 25.6994 17.8685 25.5372 17.1141 26.0537C16.3177 26.5993 16.1141 27.6866 16.659 28.4836C17.2046 29.28 18.2919 29.4837 19.089 28.9387C19.4691 28.6782 19.7102 28.2929 19.8027 27.876L25.4564 26.5359L25.1054 25.053Z" fill="#EAE7F3"/>
<path d="M43.7378 27.6195L35.7724 27.4993C35.6857 27.125 35.5325 26.7604 35.3024 26.4243C34.314 24.9801 32.3417 24.6104 30.8969 25.5994C29.4528 26.5878 29.083 28.5607 30.0721 30.0049C31.0605 31.449 33.0334 31.8188 34.4775 30.8297C35.1311 30.3824 35.5623 29.7327 35.7491 29.023L43.7152 29.1432L43.7384 27.6195H43.7378Z" fill="#C69EED"/>
<path d="M41.1148 24.5639C39.0068 26.0074 38.4676 28.886 39.9105 30.994C40.3177 31.5887 40.842 32.0542 41.4283 32.3897L39.1742 38.4675L40.6028 38.9976L42.8557 32.9236C44.0251 33.148 45.2805 32.9249 46.3406 32.199C48.4487 30.7561 48.9878 27.8769 47.5449 25.7689C46.1014 23.6608 43.2228 23.1217 41.1142 24.5645L41.1148 24.5639Z" fill="#E1DAF5"/>
<path d="M23.4914 23.179C22.0473 24.1674 21.6775 26.1403 22.6665 27.5845C22.8967 27.9206 23.1811 28.1954 23.4985 28.4113L20.7285 35.8802L22.1571 36.4103L24.9278 28.9407C25.6576 29.0235 26.4191 28.8567 27.0727 28.4093C28.5168 27.4209 28.8866 25.448 27.8975 24.0039C26.9091 22.5597 24.9368 22.19 23.492 23.179H23.4914Z" fill="#C69EED"/>
<path d="M32.4934 35.5507L26.0122 35.4525C25.9114 34.784 25.6677 34.1273 25.2604 33.5325C23.8176 31.4245 20.9383 30.8854 18.8296 32.3282C16.7216 33.7711 16.1825 36.6503 17.6253 38.7583C19.0688 40.8664 21.9474 41.4055 24.0555 39.9627C25.1156 39.2367 25.7782 38.1475 25.9922 36.9761L32.4701 37.0744L32.4934 35.5507Z" fill="#E1DAF5"/>
<path d="M45.3382 34.9849C44.9917 35.2221 44.7816 35.5809 44.7189 35.9649L42.4538 36.8777C41.4505 35.4891 39.5196 35.1446 38.0981 36.1175C36.654 37.1059 36.2842 39.0788 37.2732 40.5229C38.2616 41.9671 40.2346 42.3368 41.6787 41.3478C42.7053 40.6451 43.1856 39.4453 43.024 38.2914L45.293 37.3774C45.7843 37.7445 46.4701 37.784 47.0047 37.4181C47.6764 36.9585 47.8483 36.0405 47.3887 35.3689C46.9291 34.6972 46.0112 34.5253 45.3395 34.9849H45.3382Z" fill="#C69EED"/>
<path d="M30.6908 33.6973C29.2466 34.6857 28.8769 36.6586 29.8659 38.1028C30.1607 38.5333 30.544 38.8662 30.9733 39.0977L30.4884 40.971C30.2641 41.0156 30.045 41.1049 29.8446 41.2425C29.0482 41.7881 28.8445 42.8754 29.3895 43.6725C29.9351 44.4689 31.0224 44.6725 31.8195 44.1276C32.6159 43.582 32.8195 42.4947 32.2745 41.6976C32.1853 41.5671 32.0767 41.4585 31.9623 41.3602L32.4491 39.4797C33.0774 39.4868 33.7142 39.3097 34.272 38.9276C35.7162 37.9392 36.0859 35.9663 35.0969 34.5222C34.1085 33.078 32.1356 32.7083 30.6914 33.6973H30.6908Z" fill="#EAE7F3"/>
</g>
<defs>
<clipPath id="clip0_20_10099">
<rect width="32" height="25.4328" fill="white" transform="translate(16.3535 19)"/>
</clipPath>
</defs>
</svg>
