<svg width="65" height="65" viewBox="0 0 65 65" fill="none" xmlns="http://www.w3.org/2000/svg">
<path d="M32.3161 64.6322C50.1638 64.6322 64.6322 50.1638 64.6322 32.3161C64.6322 14.4684 50.1638 0 32.3161 0C14.4684 0 0 14.4684 0 32.3161C0 50.1638 14.4684 64.6322 32.3161 64.6322Z" fill="#471975"/>
<g clip-path="url(#clip0_20_10147)">
<path d="M26.2367 33.2707C26.0193 32.5519 25.2606 32.1454 24.5418 32.3627C24.3081 32.4334 24.1123 32.565 23.9559 32.73V32.7215C23.1814 33.526 21.8453 33.327 21.3379 32.332V32.3365C20.7533 31.1817 19.41 30.5755 18.1282 30.9631C16.6906 31.3978 15.8781 32.9153 16.3122 34.3529C16.7469 35.7905 18.2643 36.6029 19.702 36.1682C20.4103 35.9541 20.9661 35.4762 21.2967 34.8753V34.8779C21.8355 33.8998 23.1782 33.7447 23.9258 34.5741V34.5689C24.2675 34.9493 24.8076 35.1227 25.3287 34.965C26.0475 34.7476 26.454 33.9889 26.2367 33.2701V33.2707Z" fill="#EAE7F3"/>
<path d="M48.1597 34.4707C48.0432 33.7401 47.6445 33.1247 47.0933 32.7162H47.0959C46.1997 32.0505 46.2266 30.6999 47.1496 30.0708H47.1444C47.5673 29.7827 47.8121 29.2715 47.7264 28.7333C47.6079 27.9916 46.9107 27.4869 46.1696 27.6054C45.4279 27.7239 44.9232 28.4211 45.0416 29.1621C45.0803 29.4031 45.1844 29.6145 45.3264 29.7926L45.3179 29.7913C46.0105 30.6672 45.6335 31.9647 44.5795 32.3326H44.584C43.3612 32.7568 42.5788 34.0059 42.7903 35.3283C43.0273 36.8111 44.421 37.8212 45.9038 37.5849C47.3866 37.3479 48.3967 35.9541 48.1604 34.4714L48.1597 34.4707Z" fill="#EAE7F3"/>
<path d="M37.067 19.7458C34.8687 18.9229 32.4203 20.0377 31.5974 22.236C30.9041 24.0881 32.11 29.4706 32.5074 31.1197C31.1247 32.103 26.681 35.371 25.9877 37.223C25.1648 39.4213 26.2797 41.8697 28.478 42.6926C30.6757 43.5155 33.1247 42.4006 33.9476 40.2023C34.6409 38.3503 33.435 32.9677 33.0376 31.3187C34.4196 30.3354 38.864 27.0674 39.5573 25.2154C40.3802 23.017 39.2653 20.5687 37.067 19.7458Z" fill="#E1DAF5"/>
<path d="M42.8924 39.5831C42.7163 38.5775 40.7706 36.501 40.1703 35.8804C40.5232 35.0922 41.6459 32.4775 41.4698 31.472C41.261 30.2825 40.1278 29.4871 38.9383 29.6959C37.7488 29.9047 36.9534 31.0379 37.1622 32.2274C37.3383 33.233 39.2839 35.3095 39.8842 35.9301C39.5314 36.7183 38.4087 39.333 38.5848 40.3386C38.7936 41.5281 39.9268 42.3235 41.1163 42.1146C42.3058 41.9058 43.1012 40.7726 42.8924 39.5831Z" fill="#C69EED"/>
<path d="M29.8357 27.9185C29.6596 26.913 27.714 24.8364 27.1137 24.2158C27.4665 23.4276 28.5893 20.813 28.4132 19.8074C28.2043 18.6179 27.0711 17.8225 25.8816 18.0313C24.6921 18.2402 23.8967 19.3734 24.1056 20.5629C24.2817 21.5684 26.2273 23.645 26.8276 24.2656C26.4747 25.0538 25.352 27.6685 25.5281 28.674C25.7369 29.8635 26.8701 30.6589 28.0596 30.4501C29.2491 30.2412 30.0446 29.108 29.8357 27.9185Z" fill="#C69EED"/>
<path d="M23.3354 41.4815C23.0833 42.1545 22.3338 42.4956 21.6614 42.2435C20.9885 41.9915 20.6474 41.2419 20.8994 40.5689C21.1515 39.8959 21.901 39.5549 22.5734 39.8069C23.2464 40.0589 23.5874 40.8085 23.3354 41.4815Z" fill="#E1DAF5"/>
<path d="M37.3875 43.4756C37.2016 43.9732 36.6471 44.2252 36.1502 44.0393C35.6527 43.8534 35.4006 43.2989 35.5866 42.802C35.7725 42.3051 36.327 42.0524 36.8239 42.2383C37.3214 42.4243 37.5734 42.9788 37.3875 43.4756Z" fill="#E1DAF5"/>
<path d="M44.306 25.9814C44.0566 26.6485 43.3135 26.987 42.6464 26.7369C41.9794 26.4875 41.6409 25.7444 41.891 25.0774C42.1404 24.4103 42.8834 24.0718 43.5505 24.3219C44.2176 24.5713 44.5561 25.3143 44.306 25.9814Z" fill="#E1DAF5"/>
<path d="M22.5026 27.1125C22.2159 27.8778 21.3635 28.266 20.5982 27.9799C19.8329 27.6932 19.4447 26.8408 19.7308 26.0755C20.0169 25.3102 20.8699 24.922 21.6352 25.2081C22.4005 25.4948 22.7887 26.3472 22.5026 27.1125Z" fill="#E1DAF5"/>
</g>
<defs>
<clipPath id="clip0_20_10147">
<rect width="32" height="26.1022" fill="white" transform="translate(16.1953 17.9978)"/>
</clipPath>
</defs>
</svg>
