<svg width="65" height="65" viewBox="0 0 65 65" fill="none" xmlns="http://www.w3.org/2000/svg">
<path d="M32.3161 64.6322C50.1638 64.6322 64.6322 50.1638 64.6322 32.3161C64.6322 14.4684 50.1638 0 32.3161 0C14.4684 0 0 14.4684 0 32.3161C0 50.1638 14.4684 64.6322 32.3161 64.6322Z" fill="#471975"/>
<g clip-path="url(#clip0_20_10153)">
<path d="M22.972 32.6413C24.4551 32.6524 25.6662 31.4593 25.6772 29.9762C25.6883 28.493 24.4953 27.282 23.0121 27.2709C22.2816 27.2654 21.6176 27.5534 21.1295 28.0236V28.0208C20.3359 28.7852 19.0245 28.5387 18.562 27.5375L18.5606 27.5423C18.3501 27.084 17.8917 26.762 17.3537 26.7578C16.6114 26.753 16.0056 27.3499 16 28.0914C15.9945 28.833 16.5914 29.4382 17.3329 29.4437C17.5739 29.4458 17.7969 29.3786 17.9935 29.2692L17.9907 29.2775C18.9567 28.7458 20.1587 29.3246 20.3456 30.411L20.347 30.4062C20.5603 31.6664 21.6495 32.6316 22.972 32.6413Z" fill="#E1DAF5"/>
<path d="M40.258 24.9563C40.5516 24.2867 40.5489 23.5631 40.3093 22.9296L40.3114 22.9316C39.9222 21.8999 40.6666 20.7921 41.7689 20.7623L41.7647 20.7588C42.2695 20.7464 42.7459 20.4521 42.9619 19.9591C43.2597 19.2798 42.9502 18.4884 42.2709 18.1907C41.5916 17.8929 40.8002 18.2024 40.5025 18.8817C40.4055 19.1026 40.3792 19.3338 40.4028 19.5575L40.3965 19.5519C40.5045 20.6494 39.4978 21.526 38.4259 21.2684L38.4294 21.2719C37.1872 20.9707 35.8709 21.5911 35.3398 22.8021C34.7443 24.1607 35.3634 25.7442 36.7219 26.339C38.0804 26.9345 39.664 26.3155 40.2587 24.9569L40.258 24.9563Z" fill="#E1DAF5"/>
<path d="M37.8465 47.7727C38.4392 47.3274 38.5589 46.4855 38.113 45.8928C37.9683 45.7003 37.78 45.5632 37.5736 45.4738L37.582 45.4711C36.5731 45.0258 36.3038 43.7193 37.0543 42.9112L37.0502 42.9126C37.9226 41.9785 38.0293 40.5272 37.2344 39.4699C36.3432 38.2845 34.66 38.0456 33.4745 38.936C32.2891 39.8272 32.0502 41.5105 32.9407 42.6959C33.3797 43.2803 34.0112 43.6334 34.6807 43.7359H34.678C35.7678 43.9048 36.3675 45.0972 35.8516 46.0721L35.8565 46.07C35.6196 46.5159 35.6418 47.0754 35.9652 47.5054C36.4104 48.0981 37.2524 48.2179 37.8451 47.772L37.8465 47.7727Z" fill="#E1DAF5"/>
<path d="M41.9384 41.1337C41.1968 41.1282 40.6 40.523 40.6055 39.7814C40.611 39.0398 41.2162 38.443 41.9578 38.4485C42.6994 38.4541 43.2962 39.0592 43.2907 39.8008C43.2852 40.5424 42.68 41.1393 41.9384 41.1337Z" fill="#EAE7F3"/>
<path d="M27.9792 46.6324C26.8035 46.6234 25.857 45.663 25.8653 44.4873C25.8743 43.3116 26.8347 42.365 28.0104 42.3733C29.1861 42.3823 30.1326 43.3427 30.1243 44.5184C30.1153 45.6942 29.155 46.6407 27.9792 46.6324Z" fill="#EAE7F3"/>
<path d="M33.6612 20.1465C32.779 20.1403 32.0693 19.4195 32.0762 18.5374C32.0825 17.6559 32.8026 16.9462 33.6847 16.9524C34.5668 16.9587 35.2766 17.6795 35.2696 18.5616C35.2634 19.4437 34.5426 20.1535 33.6605 20.1465H33.6612Z" fill="#EAE7F3"/>
<path d="M44.9462 36.183C46.6205 36.1954 47.988 34.848 48.0005 33.1737C48.0129 31.4995 46.6655 30.1319 44.9912 30.1195C43.6853 30.1098 42.5699 30.9289 42.1343 32.0832L32.086 31.201L31.9434 32.8268L41.9896 33.709C42.25 35.1076 43.4707 36.1719 44.9462 36.183Z" fill="#C69EED"/>
<path d="M26.0157 38.7304C26.0192 38.2408 25.925 37.7734 25.7533 37.3455L32.4808 32.6842L31.5509 31.3423L24.8206 36.005C24.1773 35.4178 23.3264 35.0543 22.3875 35.0474C20.3691 35.0322 18.7204 36.6566 18.7052 38.6757C18.69 40.6941 20.3144 42.3427 22.3334 42.3579C24.3518 42.3732 26.0005 40.7488 26.0157 38.7297V38.7304Z" fill="#C69EED"/>
<path d="M31.3071 32.4182L32.7245 31.6095L28.2875 23.8302C29.0069 23.1682 29.4625 22.2245 29.4708 21.1699C29.486 19.1508 27.8616 17.5022 25.8425 17.4877C23.8241 17.4724 22.1755 19.0968 22.1603 21.1159C22.145 23.135 23.7694 24.7829 25.7885 24.7982C26.1652 24.801 26.5294 24.7463 26.8722 24.6431L31.3071 32.4182Z" fill="#C69EED"/>
<path d="M36.8478 33.6883C37.7733 31.0185 36.3593 28.104 33.6896 27.1784C31.0198 26.2529 28.1053 27.6669 27.1797 30.3366C26.2542 33.0064 27.6682 35.9209 30.3379 36.8465C33.0077 37.772 35.9222 36.358 36.8478 33.6883Z" fill="#EAE7F3"/>
</g>
<defs>
<clipPath id="clip0_20_10153">
<rect width="32" height="31.0895" fill="white" transform="translate(16 16.9524)"/>
</clipPath>
</defs>
</svg>
