<svg width="65" height="65" viewBox="0 0 65 65" fill="none" xmlns="http://www.w3.org/2000/svg">
<path d="M15.0257 54.4038H13.4414V55.9887H15.0257V54.4038Z" fill="#24A0D6"/>
<path d="M17.9222 54.4038H16.3379V55.9887H17.9222V54.4038Z" fill="#24A0D6"/>
<path d="M20.8187 54.4038H19.2344V55.9887H20.8187V54.4038Z" fill="#24A0D6"/>
<path d="M30.5957 24.0257L31.7305 25.1592L38.5827 18.2991L37.448 17.1656L30.5957 24.0257Z" fill="#24A0D6"/>
<path d="M38.3384 16.2799L39.4727 17.4148L40.697 16.1911L39.5628 15.0562L38.3384 16.2799Z" fill="#24A0D6"/>
<path d="M32.3161 64.6322C50.1638 64.6322 64.6322 50.1638 64.6322 32.3161C64.6322 14.4684 50.1638 0 32.3161 0C14.4684 0 0 14.4684 0 32.3161C0 50.1638 14.4684 64.6322 32.3161 64.6322Z" fill="#471975"/>
<g clip-path="url(#clip0_20_10087)">
<path d="M35.5473 33.3033C35.9927 31.416 34.8239 29.5249 32.9366 29.0795C31.0493 28.634 29.1582 29.8029 28.7128 31.6902C28.2674 33.5775 29.4362 35.4685 31.3235 35.914C33.2108 36.3594 35.1019 35.1906 35.5473 33.3033Z" fill="#C69EED"/>
<path d="M32.1298 42.7374L23.2617 37.6173V27.3777L32.1298 22.2576L40.998 27.3777V37.6173L32.1298 42.7374ZM24.8619 36.6937L32.1305 40.8902L39.3991 36.6937V28.3006L32.1305 24.1041L24.8619 28.3006V36.6937Z" fill="#C69EED"/>
<path d="M27.2773 19.1033C27.2773 17.9707 26.3592 17.0525 25.2266 17.0525C24.0939 17.0525 23.1758 17.9707 23.1758 19.1033C23.1758 19.8538 23.5836 20.5032 24.1849 20.8609L23.2688 27.7332L24.8547 27.9449L25.7708 21.0712C26.6374 20.8317 27.2766 20.0459 27.2766 19.1033H27.2773Z" fill="#EAE7F3"/>
<path d="M39.1532 17.0525C38.0206 17.0525 37.1025 17.9707 37.1025 19.1033C37.1025 19.1894 37.1174 19.2709 37.1276 19.3543L31.7285 22.4889L32.532 23.8726L37.9283 20.7394C38.271 20.9959 38.6918 21.154 39.1525 21.154C40.2851 21.154 41.2033 20.2359 41.2033 19.1033C41.2033 17.9707 40.2858 17.0525 39.1532 17.0525Z" fill="#EAE7F3"/>
<path d="M46.0795 30.4464C45.7245 30.4464 45.3954 30.5448 45.1036 30.7036L40.6947 27.2114L39.7012 28.4648L44.1094 31.9563C44.0619 32.1293 44.0287 32.3078 44.0287 32.4965C44.0287 33.6291 44.9468 34.5472 46.0795 34.5472C47.2121 34.5472 48.1302 33.6291 48.1302 32.4965C48.1302 31.3639 47.2121 30.4457 46.0795 30.4457V30.4464Z" fill="#EAE7F3"/>
<path d="M40.1715 44.1203L40.994 37.2501L39.4054 37.0601L38.5829 43.931C37.7306 44.1794 37.1035 44.9578 37.1035 45.8909C37.1035 47.0235 38.0217 47.9416 39.1543 47.9416C40.2869 47.9416 41.2051 47.0235 41.2051 45.8909C41.2051 45.1308 40.7863 44.4746 40.1722 44.1203H40.1715Z" fill="#EAE7F3"/>
<path d="M32.5379 42.5019L31.7243 41.125L26.4399 44.2453C26.0992 43.9935 25.6826 43.8401 25.2266 43.8401C24.0939 43.8401 23.1758 44.7583 23.1758 45.8909C23.1758 47.0235 24.0939 47.9417 25.2266 47.9417C26.3592 47.9417 27.2773 47.0235 27.2773 45.8909C27.2773 45.7993 27.2617 45.7124 27.2502 45.6242L32.5372 42.5019H32.5379Z" fill="#EAE7F3"/>
<path d="M24.5518 36.5228L20.1306 33.1033C20.1903 32.9106 20.2324 32.7097 20.2324 32.4973C20.2324 31.3647 19.3142 30.4465 18.1816 30.4465C17.049 30.4465 16.1309 31.3647 16.1309 32.4973C16.1309 33.6299 17.049 34.5481 18.1816 34.5481C18.5114 34.5481 18.8188 34.4632 19.0944 34.3248L23.5732 37.7884L24.5518 36.5228Z" fill="#EAE7F3"/>
<path d="M34.6766 23.7815C35.0086 22.3746 34.1373 20.9649 32.7304 20.6329C31.3235 20.3008 29.9138 21.1721 29.5817 22.579C29.2497 23.9859 30.121 25.3957 31.5279 25.7277C32.9348 26.0598 34.3445 25.1884 34.6766 23.7815Z" fill="#E1DAF5"/>
<path d="M41.0659 30.3092C42.43 29.8307 43.1479 28.337 42.6694 26.9729C42.1909 25.6089 40.6972 24.891 39.3331 25.3695C37.9691 25.8479 37.2512 27.3416 37.7297 28.7057C38.2082 30.0698 39.7018 30.7877 41.0659 30.3092Z" fill="#E1DAF5"/>
<path d="M26.6101 37.7552C26.9422 36.3483 26.0709 34.9386 24.664 34.6065C23.2571 34.2744 21.8474 35.1458 21.5153 36.5527C21.1832 37.9596 22.0546 39.3693 23.4615 39.7013C24.8684 40.0334 26.2781 39.1621 26.6101 37.7552Z" fill="#E1DAF5"/>
<path d="M33.9821 43.6645C35.0042 42.6423 35.0042 40.9851 33.9821 39.9629C32.9599 38.9408 31.3026 38.9408 30.2805 39.9629C29.2583 40.9851 29.2583 42.6423 30.2805 43.6645C31.3026 44.6867 32.9599 44.6867 33.9821 43.6645Z" fill="#E1DAF5"/>
<path d="M42.1481 39.0207C43.1702 37.9985 43.1702 36.3413 42.1481 35.3191C41.1259 34.297 39.4687 34.297 38.4465 35.3191C37.4243 36.3413 37.4243 37.9985 38.4465 39.0207C39.4687 40.0429 41.1259 40.0429 42.1481 39.0207Z" fill="#E1DAF5"/>
<path d="M24.7325 30.369C26.1297 29.998 26.9616 28.5647 26.5906 27.1676C26.2196 25.7704 24.7863 24.9385 23.3891 25.3095C21.992 25.6805 21.1601 27.1138 21.5311 28.511C21.902 29.9081 23.3354 30.74 24.7325 30.369Z" fill="#E1DAF5"/>
</g>
<defs>
<clipPath id="clip0_20_10087">
<rect width="32" height="30.8891" fill="white" transform="translate(16.1309 17.0525)"/>
</clipPath>
</defs>
</svg>
