<svg width="83" height="85" viewBox="0 0 83 85" fill="none" xmlns="http://www.w3.org/2000/svg">
<path d="M41.4453 82.9985C63.5346 82.9985 81.4453 64.7401 81.4453 42.222C81.4453 19.6972 63.5346 1.44543 41.4453 1.44543C19.3495 1.44543 1.44531 19.6972 1.44531 42.222C1.44531 64.7401 19.3495 82.9985 41.4453 82.9985Z" stroke="#4F237B" stroke-width="2.89085"/>
<mask id="mask0_2199_799" style="mask-type:luminance" maskUnits="userSpaceOnUse" x="17" y="15" width="51" height="49">
<path d="M17.0791 15.9977H67.2998V63.567H17.0791V15.9977Z" fill="white"/>
</mask>
<g mask="url(#mask0_2199_799)">
</g>
<g clip-path="url(#clip0_2199_799)">
<path d="M63.8964 17.5374C61.8268 15.4638 58.4555 15.4638 56.3859 17.5374L34.1605 39.8061C33.3731 40.5951 33.0802 41.7493 33.4056 42.8188C33.4577 42.9883 33.5423 43.1383 33.6204 43.2948L16.7447 60.2099C16.556 60.399 16.4453 60.6598 16.4453 60.9337C16.4453 61.2076 16.5494 61.4619 16.7447 61.6575C18.2936 63.216 20.3372 63.992 22.3743 63.992C24.4113 63.992 26.4549 63.2095 28.0038 61.6575L37.9483 51.6936C38.2086 51.4328 38.3062 51.0481 38.2086 50.6894L37.6489 48.7462L40.532 45.8575L42.1851 46.1835C42.2502 46.1966 42.3153 46.2031 42.3804 46.2031C42.6472 46.2031 42.9075 46.0987 43.1028 45.9031L63.8964 25.069C65.966 22.9954 65.966 19.6176 63.8964 17.5439V17.5374ZM46.3764 39.7344L38.6317 38.2085L39.7706 37.0674L47.5153 38.5932L46.3764 39.7344ZM36.2171 47.2986C35.6965 47.8202 35.4947 48.5897 35.6965 49.3005L36.087 50.6633L26.5655 60.2033C24.4959 62.277 21.2744 62.4922 18.9575 60.8619L35.1042 44.6837C35.2995 44.7685 35.4947 44.8467 35.7095 44.8924L38.1305 45.3684L36.2171 47.2855V47.2986ZM42.0419 44.0773L36.1 42.91C35.5793 42.8057 35.4036 42.4014 35.3515 42.2319C35.2995 42.0623 35.2214 41.6254 35.5989 41.2537L36.9005 39.9496L44.6452 41.4755L42.0419 44.0838V44.0773ZM62.4581 23.6214L49.253 36.8522L41.5083 35.3263L57.8242 18.985C58.4621 18.346 59.3016 18.0265 60.1412 18.0265C60.9807 18.0265 61.8203 18.346 62.4581 18.985C63.7337 20.2631 63.7337 22.3498 62.4581 23.6279V23.6214Z" fill="#4F237B"/>
</g>
<defs>
<clipPath id="clip0_2199_799">
<rect width="49" height="48" fill="white" transform="translate(16.4453 15.9855)"/>
</clipPath>
</defs>
</svg>
