<svg width="83" height="85" viewBox="0 0 83 85" fill="none" xmlns="http://www.w3.org/2000/svg">
<path d="M41.4453 82.9985C63.5346 82.9985 81.4453 64.7401 81.4453 42.222C81.4453 19.6972 63.5346 1.44543 41.4453 1.44543C19.3495 1.44543 1.44531 19.6972 1.44531 42.222C1.44531 64.7401 19.3495 82.9985 41.4453 82.9985Z" stroke="#3C0B6D" stroke-width="2.89085"/>
<mask id="mask0_2199_814" style="mask-type:luminance" maskUnits="userSpaceOnUse" x="20" y="15" width="51" height="49">
<path d="M20.3926 15.9977H70.6133V63.567H20.3926V15.9977Z" fill="white"/>
</mask>
<g mask="url(#mask0_2199_814)">
</g>
<g clip-path="url(#clip0_2199_814)">
<path d="M68.6527 37.5698H67.6999V34.4387C69.1933 34.2756 70.2948 33.0167 70.2069 31.5686C70.1258 30.114 68.8824 28.9855 67.3823 28.9855H56.4216C54.9214 28.9855 53.678 30.114 53.5902 31.5621C53.5023 33.0102 54.6038 34.2691 56.0972 34.4322V37.5633H48.3463V34.4322C49.8397 34.2691 50.9412 33.0102 50.8534 31.5621C50.7587 30.114 49.5154 28.9855 48.0084 28.9855H37.0477C35.5408 28.9855 34.2974 30.114 34.2096 31.5621C34.1217 33.0102 35.2232 34.2691 36.7166 34.4322V37.5633H28.9657V34.4322C30.4591 34.2691 31.5606 33.0102 31.4728 31.5621C31.3917 30.114 30.1483 28.9855 28.6481 28.9855H17.6806C16.1805 28.9855 14.9371 30.114 14.8492 31.5621C14.7614 33.0102 15.8629 34.2691 17.3563 34.4322V37.5633H16.6062C14.687 37.5633 13.1328 39.0636 13.1328 40.9161V42.1816C13.1328 44.0341 14.687 45.5344 16.6062 45.5344H17.3563V56.3626C17.3563 59.4545 19.9579 61.9594 23.161 61.9594C26.3641 61.9594 28.9657 59.4545 28.9657 56.3626V45.5344H36.7166V56.3626C36.7166 59.4545 39.3182 61.9594 42.5213 61.9594C45.7244 61.9594 48.326 59.4545 48.326 56.3626V45.5344H56.0769V56.3626C56.0769 59.4611 58.6718 61.9659 61.8816 61.9659C65.0915 61.9659 67.6864 59.4545 67.6864 56.3626V45.5344H68.6392C70.5583 45.5344 72.1125 44.0341 72.1125 42.1816V40.9161C72.1125 39.0636 70.5583 37.5633 68.6392 37.5633L68.6527 37.5698ZM55.6917 31.7251C55.6917 31.3403 56.0161 31.0272 56.4148 31.0272H67.3755C67.7742 31.0272 68.0986 31.3403 68.0986 31.7251C68.0986 32.11 67.7742 32.4231 67.3755 32.4231H56.4148C56.0161 32.4231 55.6917 32.11 55.6917 31.7251ZM58.1988 34.4648H65.5915V37.5698H58.1988V34.4648ZM36.3247 31.7251C36.3247 31.3403 36.649 31.0272 37.0477 31.0272H48.0084C48.4071 31.0272 48.7315 31.3403 48.7315 31.7251C48.7315 32.11 48.4071 32.4231 48.0084 32.4231H37.0477C36.649 32.4231 36.3247 32.11 36.3247 31.7251ZM38.8385 34.4648H46.2312V37.5698H38.8385V34.4648ZM16.9576 31.7251C16.9576 31.3403 17.2819 31.0272 17.6806 31.0272H28.6413C29.04 31.0272 29.3644 31.3403 29.3644 31.7251C29.3644 32.11 29.04 32.4231 28.6413 32.4231H17.6874C17.2887 32.4231 16.9643 32.11 16.9643 31.7251H16.9576ZM19.4714 34.4648H26.8641V37.5698H19.4714V34.4648ZM26.8574 56.3757C26.8574 58.3456 25.2018 59.9372 23.161 59.9372C21.1202 59.9372 19.4714 58.3456 19.4646 56.3757V45.5474H26.8574V56.3757ZM46.2244 56.3757C46.2244 58.3456 44.5688 59.9372 42.5281 59.9372C40.4873 59.9372 38.8385 58.3456 38.8317 56.3757V45.5474H46.2244V56.3757ZM65.5915 56.3757C65.5915 58.3456 63.9359 59.9438 61.8952 59.9438C59.8544 59.9438 58.1988 58.3456 58.1988 56.3757V45.5474H65.5915V56.3757ZM70.0177 42.1881C70.0177 42.9121 69.4095 43.5057 68.6527 43.5057H16.6129C15.8561 43.5057 15.2479 42.9121 15.2479 42.1881V40.9226C15.2479 40.1986 15.8561 39.605 16.6129 39.605H68.6594C69.4163 39.605 70.0245 40.1986 70.0245 40.9226V42.1881H70.0177Z" fill="#3C0B6D"/>
</g>
<defs>
<clipPath id="clip0_2199_814">
<rect width="59" height="33" fill="white" transform="translate(13.1328 28.9855)"/>
</clipPath>
</defs>
</svg>
