<svg width="83" height="85" viewBox="0 0 83 85" fill="none" xmlns="http://www.w3.org/2000/svg">
<path d="M41.4453 82.9985C63.5346 82.9985 81.4453 64.7401 81.4453 42.222C81.4453 19.6972 63.5346 1.44543 41.4453 1.44543C19.3495 1.44543 1.44531 19.6972 1.44531 42.222C1.44531 64.7401 19.3495 82.9985 41.4453 82.9985Z" stroke="#3C0B6D" stroke-width="2.89085"/>
<mask id="mask0_2199_829" style="mask-type:luminance" maskUnits="userSpaceOnUse" x="16" y="16" width="51" height="49">
<path d="M16.4453 16.4454H66.666V64.0147H16.4453V16.4454Z" fill="white"/>
</mask>
<g mask="url(#mask0_2199_829)">
</g>
<g clip-path="url(#clip0_2199_829)">
<path d="M52.7979 25.0958C56.6518 25.096 59.9471 27.7717 60.6611 31.4415V31.4425C61.4736 35.6548 58.6383 39.7347 54.2871 40.5343C49.9314 41.3347 45.7596 38.5372 44.9463 34.3204L44.8447 33.7941H32.125C31.3507 33.7878 30.6288 34.2112 30.2773 34.9054C29.7708 35.9037 30.1879 37.1148 31.1992 37.6085L52.4229 47.9698C54.2957 48.8839 55.5099 50.6836 55.6543 52.6827L55.6689 53.0851C55.6624 56.2229 53.049 58.7902 49.7949 58.7902H36.5723L36.3984 59.171C35.4029 61.3569 33.429 62.9684 31.0537 63.5529L30.5732 63.6564C26.2183 64.4566 22.0459 61.6531 21.2324 57.4357C20.4265 53.2234 23.2622 49.1437 27.6191 48.3439H27.6201C31.9749 47.5438 36.1464 50.3465 36.96 54.5636L37.0625 55.0909H49.7822V55.09C50.5569 55.0961 51.2787 54.6725 51.6299 53.9777L51.6289 53.9767C52.1344 52.9786 51.718 51.7689 50.707 51.2755L29.4775 40.9152C27.4802 39.9404 26.2318 37.9579 26.2314 35.8009C26.2373 32.6624 28.851 30.0949 32.1055 30.0948H45.3271L45.501 29.715C46.782 26.9147 49.6402 25.0958 52.7979 25.0958ZM29.1094 51.9161C26.819 51.9161 24.9385 53.7296 24.9385 56.0031C24.9385 58.2053 26.7031 59.9764 28.8955 60.0851L29.1094 60.09H29.1113C31.3981 60.0826 33.2802 58.2783 33.2803 56.0031C33.2803 53.7297 31.3997 51.9162 29.1094 51.9161ZM52.7979 28.795C50.5075 28.795 48.626 30.6085 48.626 32.882C48.6262 35.1552 50.5076 36.9689 52.7979 36.9689H52.7998C55.0864 36.9615 56.9686 35.157 56.9688 32.882C56.9688 30.6086 55.0881 28.7952 52.7979 28.795Z" stroke="#3C0B6D" stroke-width="1.3"/>
</g>
<defs>
<clipPath id="clip0_2199_829">
<rect width="41" height="40" fill="white" transform="translate(20.4453 24.4454)"/>
</clipPath>
</defs>
</svg>
