<svg width="83" height="85" viewBox="0 0 83 85" fill="none" xmlns="http://www.w3.org/2000/svg">
<path d="M41.4453 82.9985C63.5346 82.9985 81.4453 64.7401 81.4453 42.222C81.4453 19.6972 63.5346 1.44543 41.4453 1.44543C19.3495 1.44543 1.44531 19.6972 1.44531 42.222C1.44531 64.7401 19.3495 82.9985 41.4453 82.9985Z" stroke="#3C0B6D" stroke-width="2.89085"/>
<g clip-path="url(#clip0_2199_844)">
<path d="M48.8516 65.9855H28.6333C28.3224 65.9855 28.0781 65.7455 28.0781 65.4401V62.5818C28.0781 60.7054 29.6325 59.1781 31.5422 59.1781H45.9538C47.8635 59.1781 49.4179 60.7054 49.4179 62.5818V65.4401C49.4068 65.7346 49.1625 65.9855 48.8516 65.9855ZM29.1884 64.8946H48.3076V62.5818C48.3076 61.3054 47.2528 60.269 45.9538 60.269H31.5311C30.2321 60.269 29.1773 61.3054 29.1773 62.5818L29.1884 64.8946Z" fill="#3C0B6D"/>
<path d="M44.0006 60.269C43.6897 60.269 43.4455 60.029 43.4455 59.7236V52.0434C43.4455 49.4906 41.3359 47.4178 38.7378 47.4178C36.1398 47.4178 34.0302 49.4906 34.0302 52.0434V59.7236C34.0302 60.029 33.7859 60.269 33.4751 60.269C33.1642 60.269 32.9199 60.029 32.9199 59.7236V52.0434C32.9199 48.8906 35.5291 46.3269 38.7378 46.3269C41.9466 46.3269 44.5557 48.8906 44.5557 52.0434V59.7236C44.5557 60.029 44.3115 60.269 44.0006 60.269Z" fill="#3C0B6D"/>
<path d="M43.9997 55.6434C43.7665 55.6434 43.5445 55.5016 43.4779 55.2725C43.3779 54.9888 43.5445 54.6725 43.8332 54.5852C46.2092 53.8106 48.4075 52.4797 50.1951 50.7342C53.2484 47.7341 54.936 43.7413 54.936 39.4867C54.936 37.763 54.6585 36.072 54.1033 34.4575C54.0034 34.1738 54.1588 33.8574 54.4586 33.7702C54.7473 33.672 55.0693 33.8247 55.1581 34.1193C55.7466 35.8539 56.0463 37.6539 56.0463 39.4976C56.0463 44.0359 54.2477 48.3014 50.9834 51.5088C49.0848 53.3743 46.731 54.8034 44.1884 55.6325C44.1218 55.6325 44.0552 55.6434 43.9997 55.6434ZM33.4853 55.6434C33.4298 55.6434 33.3631 55.6325 33.3076 55.6107C31.9198 55.1634 30.5874 54.5306 29.355 53.7452C27.3343 52.4579 25.58 50.7342 24.2588 48.7596C24.0922 48.5087 24.1588 48.1705 24.4253 48.0069C24.6807 47.8432 25.0249 47.9087 25.1914 48.1705C26.4238 50.0251 28.0782 51.6397 29.9657 52.8397C31.1204 53.5706 32.3639 54.1597 33.6629 54.5852C33.9516 54.6834 34.107 54.9888 34.0182 55.2725C33.9294 55.5016 33.7184 55.6434 33.4853 55.6434ZM33.5963 51.5415C33.5186 51.5415 33.4409 51.5306 33.3742 51.4978C32.7303 51.2142 32.0974 50.8869 31.509 50.5051C30.754 50.0251 30.0545 49.4687 29.4105 48.8578C29.1884 48.6505 29.1884 48.3014 29.3994 48.0832C29.6104 47.865 29.9657 47.865 30.1877 48.0723C30.7762 48.6396 31.4201 49.1414 32.1085 49.5887C32.6525 49.9378 33.2299 50.2433 33.8184 50.4942C34.0959 50.6142 34.2292 50.9415 34.107 51.2142C34.0071 51.4215 33.8073 51.5415 33.5963 51.5415ZM43.8887 51.5306C43.6777 51.5306 43.4668 51.4106 43.3779 51.2033C43.2558 50.9306 43.3779 50.6033 43.6666 50.4833C45.0545 49.8833 46.3091 49.0432 47.3861 47.9741C49.6955 45.705 50.9723 42.6831 50.9723 39.4758C50.9723 38.3194 50.8058 37.1848 50.4727 36.0829C50.3839 35.7993 50.5504 35.4938 50.8502 35.4066C51.15 35.3193 51.4497 35.4829 51.5386 35.7775C51.8939 36.9775 52.0826 38.2212 52.0826 39.4758C52.0826 42.9776 50.6947 46.2723 48.1744 48.7487C46.9975 49.9051 45.6318 50.8215 44.1107 51.4869C44.0441 51.5197 43.9664 51.5306 43.8887 51.5306Z" fill="#3C0B6D"/>
<path d="M31.987 49.0105H22.061C21.7501 49.0105 21.5059 48.7705 21.5059 48.465V43.5013C21.5059 43.1958 21.7501 42.9558 22.061 42.9558H31.987C32.2979 42.9558 32.5421 43.1958 32.5421 43.5013V48.465C32.5421 48.7705 32.2979 49.0105 31.987 49.0105ZM22.6161 47.9196H31.4318V44.0467H22.6161V47.9196Z" fill="#3C0B6D"/>
<path d="M38.7377 55.4143C37.372 55.4143 36.2617 54.3233 36.2617 52.9815C36.2617 51.6396 37.372 50.5487 38.7377 50.5487C40.1033 50.5487 41.2136 51.6396 41.2136 52.9815C41.2136 54.3233 40.1033 55.4143 38.7377 55.4143ZM38.7377 51.6506C37.9827 51.6506 37.372 52.2506 37.372 52.9924C37.372 53.7342 37.9827 54.3342 38.7377 54.3342C39.4927 54.3342 40.1033 53.7342 40.1033 52.9924C40.1033 52.2506 39.4927 51.6506 38.7377 51.6506Z" fill="#3C0B6D"/>
<path d="M56.3128 25.8937C56.124 25.8937 55.9353 25.7955 55.8354 25.6209C55.6799 25.3591 55.7687 25.0318 56.0352 24.8791L59.1995 23.09L56.9567 19.2717L53.7924 21.0608C53.526 21.2135 53.1818 21.1263 53.0374 20.8644C52.882 20.6026 52.9708 20.2753 53.2373 20.1226L56.879 18.0607C57.1455 17.908 57.4897 17.9953 57.634 18.2571L60.4319 23.0245C60.5097 23.1445 60.5208 23.2972 60.4875 23.4391C60.4542 23.5809 60.3542 23.7009 60.2321 23.7663L56.5903 25.8282C56.5015 25.8718 56.4127 25.8937 56.3128 25.8937Z" fill="#3C0B6D"/>
<path d="M40.4147 38.5812C39.7263 38.5812 39.0491 38.2321 38.6827 37.5994L33.8973 29.4501C33.6309 29.0028 33.5642 28.4683 33.6975 27.9665C33.8307 27.4646 34.1638 27.0392 34.6301 26.7773L48.5531 18.879C49.4747 18.3553 50.5406 18.2244 51.5731 18.4972C52.6057 18.7699 53.4606 19.4135 53.9936 20.319L56.7915 25.0864C57.824 26.8428 57.3022 29.1119 55.6035 30.2683C55.3481 30.4429 55.0039 30.3774 54.8263 30.1265C54.6486 29.8756 54.7152 29.5374 54.9706 29.3629C56.1919 28.5337 56.5694 26.8973 55.8255 25.6319L53.0276 20.8645C52.6501 20.2099 52.0283 19.7517 51.2845 19.5554C50.5406 19.359 49.7634 19.4572 49.1083 19.8281L35.1853 27.7265C34.9854 27.8465 34.8411 28.0319 34.7745 28.2501C34.7078 28.4683 34.7411 28.7083 34.8633 28.9047L39.6486 37.0539C39.8929 37.4685 40.4369 37.6103 40.8588 37.3703L47.2541 33.7484C47.5206 33.5957 47.8648 33.683 48.0091 33.9448C48.1645 34.2066 48.0757 34.5339 47.8092 34.6866L41.414 38.3085C41.1031 38.5049 40.7589 38.5812 40.4147 38.5812Z" fill="#3C0B6D"/>
<path d="M35.8507 37.6649C35.6397 37.6649 35.4288 37.6431 35.2178 37.5776C34.5961 37.414 34.0742 37.0212 33.7522 36.4758L32.4199 34.2066C32.0979 33.6612 32.0202 33.0284 32.1867 32.4175C32.3533 31.8066 32.753 31.2938 33.3081 30.9775L34.9069 30.072C35.1734 29.9192 35.5065 30.0065 35.6619 30.2683C35.8174 30.5302 35.7285 30.8575 35.4621 31.0102L33.8633 31.9157C33.5635 32.0793 33.3525 32.3629 33.2637 32.6902C33.1749 33.0175 33.2193 33.3666 33.3858 33.6502L34.7293 35.9303C34.8958 36.2248 35.1845 36.4321 35.5176 36.5194C35.8507 36.6067 36.206 36.563 36.4946 36.3994L38.0935 35.4939C38.3599 35.3412 38.693 35.4285 38.8485 35.6903C39.0039 35.9521 38.9151 36.2794 38.6486 36.4321L37.0498 37.3376C36.6723 37.5667 36.2615 37.6649 35.8507 37.6649Z" fill="#3C0B6D"/>
<path d="M51.0949 36.4866C48.2859 36.4866 46.0098 34.2393 46.0098 31.4901C46.0098 28.741 48.2859 26.4937 51.0949 26.4937C53.9039 26.4937 56.18 28.7301 56.18 31.4901C56.18 34.2502 53.9039 36.4866 51.0949 36.4866ZM51.0949 27.5846C48.9076 27.5846 47.1201 29.341 47.1201 31.4901C47.1201 33.6393 48.9076 35.3957 51.0949 35.3957C53.2822 35.3957 55.0697 33.6393 55.0697 31.4901C55.0697 29.341 53.2933 27.5846 51.0949 27.5846Z" fill="#3C0B6D"/>
<path d="M51.0957 33.912C49.7411 33.912 48.6309 32.8211 48.6309 31.4901C48.6309 30.1592 49.7411 29.0682 51.0957 29.0682C52.4503 29.0682 53.5605 30.1592 53.5605 31.4901C53.5605 32.8211 52.4503 33.912 51.0957 33.912ZM51.0957 30.1592C50.3518 30.1592 49.7411 30.7592 49.7411 31.4901C49.7411 32.221 50.3518 32.8211 51.0957 32.8211C51.8396 32.8211 52.4503 32.221 52.4503 31.4901C52.4503 30.7592 51.8396 30.1592 51.0957 30.1592Z" fill="#3C0B6D"/>
</g>
<defs>
<clipPath id="clip0_2199_844">
<rect width="39" height="48" fill="white" transform="translate(21.5059 17.9855)"/>
</clipPath>
</defs>
</svg>
