<svg width="83" height="85" viewBox="0 0 83 85" fill="none" xmlns="http://www.w3.org/2000/svg">
<path d="M41.4453 82.9985C63.5346 82.9985 81.4453 64.7401 81.4453 42.222C81.4453 19.6972 63.5346 1.44543 41.4453 1.44543C19.3495 1.44543 1.44531 19.6972 1.44531 42.222C1.44531 64.7401 19.3495 82.9985 41.4453 82.9985Z" stroke="#3C0B6D" stroke-width="2.89085"/>
<mask id="mask0_2199_859" style="mask-type:luminance" maskUnits="userSpaceOnUse" x="17" y="15" width="51" height="49">
<path d="M17.0801 15.9977H67.3008V63.567H17.0801V15.9977Z" fill="white"/>
</mask>
<g mask="url(#mask0_2199_859)">
</g>
<g clip-path="url(#clip0_2199_859)">
<path fill-rule="evenodd" clip-rule="evenodd" d="M61.1934 22.1388C61.1934 19.3788 58.9534 17.1388 56.1934 17.1388H28.1934C25.4334 17.1388 23.1934 19.3788 23.1934 22.1388V58.1388C23.1934 60.8988 25.4334 63.1388 28.1934 63.1388H56.1934C58.9534 63.1388 61.1934 60.8988 61.1934 58.1388V22.1388ZM59.1934 22.1388V58.1388C59.1934 59.7988 57.8534 61.1388 56.1934 61.1388H28.1934C26.5334 61.1388 25.1934 59.7988 25.1934 58.1388V22.1388C25.1934 20.4788 26.5334 19.1388 28.1934 19.1388H56.1934C57.8534 19.1388 59.1934 20.4788 59.1934 22.1388Z" fill="#3C0B6D"/>
<path fill-rule="evenodd" clip-rule="evenodd" d="M29.4837 28.8487L31.4837 30.8487C31.8737 31.2387 32.5037 31.2387 32.8937 30.8487L36.8937 26.8487C37.2837 26.4587 37.2837 25.8287 36.8937 25.4387C36.5037 25.0487 35.8737 25.0487 35.4837 25.4387L32.1937 28.7287L30.9037 27.4387C30.5137 27.0487 29.8837 27.0487 29.4937 27.4387C29.1037 27.8287 29.1037 28.4587 29.4937 28.8487H29.4837Z" fill="#3C0B6D"/>
<path fill-rule="evenodd" clip-rule="evenodd" d="M29.4837 36.8487L31.4837 38.8487C31.8737 39.2387 32.5037 39.2387 32.8937 38.8487L36.8937 34.8487C37.2837 34.4587 37.2837 33.8287 36.8937 33.4387C36.5037 33.0487 35.8737 33.0487 35.4837 33.4387L32.1937 36.7287L30.9037 35.4387C30.5137 35.0487 29.8837 35.0487 29.4937 35.4387C29.1037 35.8287 29.1037 36.4587 29.4937 36.8487H29.4837Z" fill="#3C0B6D"/>
<path fill-rule="evenodd" clip-rule="evenodd" d="M29.4837 44.8487L31.4837 46.8487C31.8737 47.2387 32.5037 47.2387 32.8937 46.8487L36.8937 42.8487C37.2837 42.4587 37.2837 41.8287 36.8937 41.4387C36.5037 41.0487 35.8737 41.0487 35.4837 41.4387L32.1937 44.7287L30.9037 43.4387C30.5137 43.0487 29.8837 43.0487 29.4937 43.4387C29.1037 43.8287 29.1037 44.4587 29.4937 44.8487H29.4837Z" fill="#3C0B6D"/>
<path fill-rule="evenodd" clip-rule="evenodd" d="M29.4837 52.8487L31.4837 54.8487C31.8737 55.2387 32.5037 55.2387 32.8937 54.8487L36.8937 50.8487C37.2837 50.4587 37.2837 49.8287 36.8937 49.4387C36.5037 49.0487 35.8737 49.0487 35.4837 49.4387L32.1937 52.7287L30.9037 51.4387C30.5137 51.0487 29.8837 51.0487 29.4937 51.4387C29.1037 51.8287 29.1037 52.4587 29.4937 52.8487H29.4837Z" fill="#3C0B6D"/>
<path fill-rule="evenodd" clip-rule="evenodd" d="M40.1934 29.1388H54.1934C54.7434 29.1388 55.1934 28.6888 55.1934 28.1388C55.1934 27.5888 54.7434 27.1388 54.1934 27.1388H40.1934C39.6434 27.1388 39.1934 27.5888 39.1934 28.1388C39.1934 28.6888 39.6434 29.1388 40.1934 29.1388Z" fill="#3C0B6D"/>
<path fill-rule="evenodd" clip-rule="evenodd" d="M40.1934 37.1388H54.1934C54.7434 37.1388 55.1934 36.6888 55.1934 36.1388C55.1934 35.5888 54.7434 35.1388 54.1934 35.1388H40.1934C39.6434 35.1388 39.1934 35.5888 39.1934 36.1388C39.1934 36.6888 39.6434 37.1388 40.1934 37.1388Z" fill="#3C0B6D"/>
<path fill-rule="evenodd" clip-rule="evenodd" d="M40.1934 45.1388H54.1934C54.7434 45.1388 55.1934 44.6888 55.1934 44.1388C55.1934 43.5888 54.7434 43.1388 54.1934 43.1388H40.1934C39.6434 43.1388 39.1934 43.5888 39.1934 44.1388C39.1934 44.6888 39.6434 45.1388 40.1934 45.1388Z" fill="#3C0B6D"/>
<path fill-rule="evenodd" clip-rule="evenodd" d="M40.1934 53.1388H54.1934C54.7434 53.1388 55.1934 52.6888 55.1934 52.1388C55.1934 51.5888 54.7434 51.1388 54.1934 51.1388H40.1934C39.6434 51.1388 39.1934 51.5888 39.1934 52.1388C39.1934 52.6888 39.6434 53.1388 40.1934 53.1388Z" fill="#3C0B6D"/>
</g>
<defs>
<clipPath id="clip0_2199_859">
<rect width="38" height="46" fill="white" transform="translate(23.1934 17.1388)"/>
</clipPath>
</defs>
</svg>
