<svg width="22" height="22" viewBox="0 0 22 22" fill="none" xmlns="http://www.w3.org/2000/svg">
<circle cx="11" cy="11" r="11" fill="#3C0B6D" fill-opacity="0.9"/>
<path d="M10.4993 17.1591C9.78717 17.1591 9.14702 17.0227 8.57884 16.75C8.01444 16.4735 7.56368 16.0947 7.22656 15.6136C6.88944 15.1326 6.70952 14.5833 6.68679 13.9659H8.39134C8.433 14.4659 8.65459 14.8769 9.05611 15.1989C9.45762 15.5208 9.93868 15.6818 10.4993 15.6818C10.9463 15.6818 11.3421 15.5795 11.6868 15.375C12.0353 15.1667 12.308 14.8807 12.505 14.517C12.7057 14.1534 12.8061 13.7386 12.8061 13.2727C12.8061 12.7992 12.7038 12.3769 12.4993 12.0057C12.2947 11.6345 12.0125 11.3428 11.6527 11.1307C11.2966 10.9186 10.8875 10.8106 10.4254 10.8068C10.0732 10.8068 9.71899 10.8674 9.36293 10.9886C9.00687 11.1098 8.71899 11.2689 8.49929 11.4659L6.89134 11.2273L7.54474 5.36364H13.9425V6.86932H9.00497L8.63565 10.125H8.70384C8.93111 9.9053 9.23224 9.72159 9.60724 9.57386C9.98603 9.42614 10.3913 9.35227 10.8232 9.35227C11.5315 9.35227 12.1622 9.52083 12.7152 9.85795C13.272 10.1951 13.7095 10.6553 14.0277 11.2386C14.3497 11.8182 14.5088 12.4848 14.505 13.2386C14.5088 13.9924 14.3383 14.6648 13.9936 15.2557C13.6527 15.8466 13.1792 16.3125 12.5732 16.6534C11.9709 16.9905 11.2796 17.1591 10.4993 17.1591Z" fill="#EAE7F3"/>
</svg>
