<svg width="22" height="22" viewBox="0 0 22 22" fill="none" xmlns="http://www.w3.org/2000/svg">
<circle cx="11" cy="11" r="11" fill="#3C0B6D" fill-opacity="0.9"/>
<path d="M10.8345 16.8866C10.0542 16.8866 9.35724 16.7522 8.74361 16.4832C8.13376 16.2143 7.6508 15.8412 7.29474 15.3639C6.94247 14.8828 6.75308 14.326 6.72656 13.6934H8.51065C8.53338 14.0381 8.64891 14.3374 8.85724 14.5912C9.06937 14.8412 9.34588 15.0344 9.68679 15.1707C10.0277 15.3071 10.4065 15.3753 10.8232 15.3753C11.2815 15.3753 11.6868 15.2957 12.0391 15.1366C12.3951 14.9775 12.6735 14.7559 12.8743 14.4719C13.075 14.184 13.1754 13.8525 13.1754 13.4775C13.1754 13.0874 13.075 12.7446 12.8743 12.4491C12.6773 12.1499 12.3875 11.915 12.005 11.7446C11.6262 11.5741 11.1679 11.4889 10.63 11.4889H9.64702V10.0571H10.63C11.0618 10.0571 11.4406 9.97943 11.7663 9.82413C12.0959 9.66883 12.3535 9.45292 12.5391 9.1764C12.7247 8.8961 12.8175 8.56845 12.8175 8.19345C12.8175 7.8336 12.736 7.5211 12.5732 7.25595C12.4141 6.98701 12.1868 6.77678 11.8913 6.62527C11.5997 6.47375 11.255 6.39799 10.8572 6.39799C10.4785 6.39799 10.1243 6.46807 9.79474 6.60822C9.46899 6.74458 9.20384 6.94155 8.99929 7.19913C8.79474 7.45292 8.6849 7.75784 8.66974 8.1139H6.97088C6.98982 7.48511 7.17543 6.93208 7.5277 6.45481C7.88376 5.97754 8.35346 5.60443 8.93679 5.33549C9.52012 5.06655 10.1679 4.93208 10.88 4.93208C11.6262 4.93208 12.2701 5.07792 12.8118 5.36958C13.3572 5.65746 13.7777 6.04193 14.0732 6.52299C14.3724 7.00405 14.5201 7.53057 14.5163 8.10254C14.5201 8.75405 14.3383 9.30708 13.9709 9.76163C13.6072 10.2162 13.1224 10.5211 12.5163 10.6764V10.7673C13.2891 10.8847 13.8875 11.1916 14.3118 11.6878C14.7398 12.184 14.9519 12.7995 14.9482 13.5344C14.9519 14.1745 14.7739 14.7484 14.4141 15.2559C14.058 15.7635 13.5713 16.1631 12.9538 16.4548C12.3364 16.7427 11.63 16.8866 10.8345 16.8866Z" fill="#EAE7F3"/>
</svg>
