<svg width="22" height="22" viewBox="0 0 22 22" fill="none" xmlns="http://www.w3.org/2000/svg">
<circle cx="11" cy="11" r="11" fill="#3C0B6D" fill-opacity="0.9"/>
<path d="M11.3556 16.8352C10.8367 16.8277 10.3253 16.733 9.82156 16.5511C9.32156 16.3693 8.86701 16.0663 8.45792 15.6421C8.04883 15.2178 7.72118 14.6477 7.47496 13.9318C7.23254 13.2159 7.11133 12.322 7.11133 11.25C7.11133 10.2349 7.21171 9.33334 7.41246 8.54547C7.61701 7.75759 7.91057 7.09281 8.29315 6.55115C8.67572 6.00569 9.13784 5.59092 9.67951 5.30683C10.2212 5.02274 10.8291 4.88069 11.5034 4.88069C12.1966 4.88069 12.8121 5.01706 13.35 5.28978C13.8878 5.56251 14.3234 5.9394 14.6568 6.42047C14.9939 6.90153 15.2079 7.44887 15.2988 8.06251H13.5659C13.4484 7.57766 13.2155 7.18183 12.867 6.87501C12.5185 6.56819 12.064 6.41478 11.5034 6.41478C10.6511 6.41478 9.98633 6.786 9.50906 7.52842C9.03557 8.27084 8.79693 9.30304 8.79315 10.625H8.87837C9.07913 10.2955 9.32534 10.0152 9.61701 9.7841C9.91246 9.54925 10.242 9.36933 10.6056 9.24433C10.9731 9.11554 11.3594 9.05115 11.7647 9.05115C12.439 9.05115 13.0488 9.21592 13.5943 9.54547C14.1435 9.87122 14.581 10.322 14.9068 10.8977C15.2325 11.4735 15.3954 12.1326 15.3954 12.875C15.3954 13.6174 15.2269 14.2898 14.8897 14.8921C14.5564 15.4943 14.0867 15.9716 13.4806 16.3239C12.8746 16.6724 12.1663 16.8428 11.3556 16.8352ZM11.35 15.358C11.7969 15.358 12.1966 15.2481 12.5488 15.0284C12.9011 14.8087 13.1795 14.5133 13.3841 14.1421C13.5886 13.7708 13.6909 13.3561 13.6909 12.8977C13.6909 12.4508 13.5905 12.0436 13.3897 11.6761C13.1928 11.3087 12.92 11.0171 12.5716 10.8011C12.2269 10.5852 11.8329 10.4773 11.3897 10.4773C11.0526 10.4773 10.7401 10.5417 10.4522 10.6705C10.1681 10.7993 9.91815 10.9773 9.70224 11.2046C9.48633 11.4318 9.31587 11.6932 9.19087 11.9886C9.06966 12.2803 9.00906 12.589 9.00906 12.9148C9.00906 13.3504 9.10943 13.7538 9.31019 14.125C9.51474 14.4962 9.79315 14.7955 10.1454 15.0227C10.5015 15.2462 10.903 15.358 11.35 15.358Z" fill="#EAE7F3"/>
</svg>
