<svg width="22" height="22" viewBox="0 0 22 22" fill="none" xmlns="http://www.w3.org/2000/svg">
<circle cx="11" cy="11" r="11" fill="#3C0B6D" fill-opacity="0.9"/>
<path d="M6.71307 17V15.7273L10.6506 11.6477C11.071 11.2045 11.4176 10.8163 11.6903 10.483C11.9669 10.1458 12.1733 9.82576 12.3097 9.52273C12.446 9.2197 12.5142 8.89773 12.5142 8.55682C12.5142 8.17045 12.4233 7.83712 12.2415 7.55682C12.0597 7.27273 11.8116 7.05492 11.4972 6.90341C11.1828 6.74811 10.8286 6.67045 10.4347 6.67045C10.018 6.67045 9.65436 6.75568 9.34375 6.92614C9.03314 7.09659 8.79451 7.33712 8.62784 7.64773C8.46117 7.95833 8.37784 8.32197 8.37784 8.73864H6.7017C6.7017 8.0303 6.86458 7.41098 7.19034 6.88068C7.5161 6.35038 7.96307 5.93939 8.53125 5.64773C9.09943 5.35227 9.74527 5.20455 10.4688 5.20455C11.1998 5.20455 11.8438 5.35038 12.4006 5.64205C12.9612 5.92992 13.3987 6.32386 13.7131 6.82386C14.0275 7.32008 14.1847 7.88068 14.1847 8.50568C14.1847 8.9375 14.1032 9.35985 13.9403 9.77273C13.7813 10.1856 13.5028 10.6458 13.1051 11.1534C12.7074 11.6572 12.1544 12.2689 11.446 12.9886L9.13352 15.4091V15.4943H14.3722V17H6.71307Z" fill="#EAE7F3"/>
</svg>
